<?xml version="1.0" encoding="utf-8"?>
<!-- Generator: Adobe Illustrator 22.1.0, SVG Export Plug-In . SVG Version: 6.00 Build 0)  -->
<svg version="1.1" id="Layer_1" xmlns="http://www.w3.org/2000/svg" xmlns:xlink="http://www.w3.org/1999/xlink" x="0px" y="0px"
	 viewBox="0 0 584.3 148.6" style="enable-background:new 0 0 584.3 148.6;" xml:space="preserve">
<style type="text/css">
	.st0{fill:#005487;}
</style>
<title>aze</title>
<path class="st0" d="M198.6,48.9h-3.5l-1.7-4.8H186l-1.6,4.8H181l7.1-18.9h3.5L198.6,48.9z M192.6,41.5L190,34
	c-0.1-0.4-0.2-0.8-0.2-1.2h0c-0.1,0.4-0.1,0.8-0.3,1.2l-2.6,7.5H192.6z"/>
<path class="st0" d="M214.7,31.4l-10.4,14.9h10.2v2.6h-14.6v-1.4l10.4-14.8h-9.6V30h14L214.7,31.4z"/>
<path class="st0" d="M216.4,38.1h14.4c-0.1-1.6-0.8-3.1-2-4.2c-1.2-1-2.8-1.6-4.4-1.6c-1.9,0-3.8,0.5-5.4,1.6v-2.9
	c1.7-1,3.7-1.5,5.7-1.4c2.6-0.1,5.1,0.8,6.9,2.6c1.8,1.9,2.7,4.5,2.5,7.1c0.1,2.6-0.8,5.1-2.5,7.1c-1.7,1.9-4.1,2.9-6.7,2.8
	c-2.4,0.1-4.8-0.9-6.4-2.8C217.2,44.5,216.4,41.8,216.4,38.1z M230.8,40.7h-11c0,1.5,0.5,3.1,1.5,4.3c1,1.1,2.4,1.7,3.8,1.6
	c1.5,0.1,3-0.5,4-1.6C230.1,43.8,230.7,42.3,230.8,40.7L230.8,40.7z"/>
<path class="st0" d="M252.3,48.9h-3.7l-3-5.1c-0.2-0.4-0.5-0.8-0.8-1.2c-0.2-0.3-0.5-0.6-0.8-0.8c-0.3-0.2-0.6-0.4-0.9-0.5
	c-0.3-0.1-0.7-0.1-1.1-0.1h-1.3v7.7h-3.1V30h6.2c0.8,0,1.7,0.1,2.5,0.3c0.7,0.2,1.4,0.5,2,1c0.6,0.4,1,1,1.3,1.6
	c0.3,0.7,0.5,1.5,0.5,2.2c0,0.6-0.1,1.2-0.3,1.8c-0.2,0.5-0.5,1-0.8,1.5c-0.4,0.4-0.8,0.8-1.3,1.1c-0.5,0.3-1.1,0.6-1.7,0.7v0
	c0.3,0.2,0.6,0.4,0.9,0.6c0.3,0.2,0.5,0.5,0.7,0.7c0.2,0.3,0.5,0.5,0.7,0.8c0.2,0.3,0.5,0.7,0.8,1.1L252.3,48.9z M240.8,32.5v6.1
	h2.6c0.5,0,0.9-0.1,1.3-0.2c0.4-0.1,0.8-0.4,1.1-0.6c0.3-0.3,0.5-0.6,0.7-1c0.2-0.4,0.3-0.9,0.2-1.4c0-0.8-0.3-1.6-0.9-2.1
	c-0.7-0.6-1.6-0.8-2.5-0.8L240.8,32.5z"/>
<path class="st0" d="M254.4,48.9V30h6c1.5-0.1,3.1,0.3,4.4,1.2c1,0.7,1.6,1.9,1.6,3.1c0,1-0.3,2-0.9,2.8c-0.6,0.8-1.5,1.4-2.5,1.7v0
	c1.2,0.1,2.3,0.6,3.1,1.5c0.8,0.9,1.2,2,1.2,3.2c0,1.5-0.7,3-1.9,3.9c-1.4,1-3.1,1.6-4.8,1.5L254.4,48.9z M257.6,32.5v5.4h2
	c0.9,0.1,1.8-0.2,2.6-0.8c0.6-0.5,1-1.4,0.9-2.2c0-1.6-1.1-2.4-3.2-2.4L257.6,32.5z M257.6,40.4v6h2.7c1,0.1,1.9-0.2,2.7-0.8
	c0.7-0.6,1-1.4,1-2.2c0-2-1.4-2.9-4.1-3H257.6z"/>
<path class="st0" d="M286.4,48.9h-3.5l-1.7-4.8h-7.5l-1.6,4.8h-3.4l7.1-18.9h3.5L286.4,48.9z M280.4,41.5l-2.6-7.5
	c-0.1-0.4-0.2-0.8-0.2-1.2h0c-0.1,0.4-0.1,0.8-0.3,1.2l-2.6,7.5H280.4z"/>
<path class="st0" d="M300.1,30l-6.2,12.1v6.9h-3.1v-6.8l-6-12.1h3.6l3.7,8.1c0,0.1,0.2,0.5,0.4,1.1l0,0c0.1-0.4,0.3-0.7,0.4-1.1
	l3.9-8.1L300.1,30z"/>
<path class="st0" d="M315.1,48.1c-1.7,0.8-3.5,1.2-5.3,1.1c-2.5,0.1-4.9-0.8-6.6-2.6c-1.7-1.9-2.6-4.3-2.5-6.8
	c-0.1-2.7,0.9-5.4,2.8-7.3c1.9-1.9,4.4-2.9,7.1-2.8c1.6,0,3.1,0.2,4.6,0.8v3.1c-1.3-0.8-2.7-1.2-4.2-1.1c-1.9-0.1-3.7,0.7-5,2
	c-1.3,1.4-2,3.3-1.9,5.3c-0.1,1.8,0.5,3.6,1.8,5c1.2,1.3,2.9,1.9,4.7,1.9c1.6,0,3.3-0.4,4.6-1.3L315.1,48.1z"/>
<path class="st0" d="M334.2,48.9h-3.5l-1.7-4.8h-7.5l-1.6,4.8h-3.4l7.1-18.9h3.5L334.2,48.9z M328.2,41.5l-2.6-7.5
	c-0.1-0.4-0.2-0.8-0.2-1.2h0c-0.1,0.4-0.1,0.8-0.3,1.2l-2.6,7.5H328.2z"/>
<path class="st0" d="M352.9,48.9h-3.5l-9-13.9c-0.2-0.3-0.4-0.7-0.6-1.1h-0.1c0.1,0.9,0.1,1.7,0.1,2.6v12.4h-3V30h3.7l8.7,13.6
	c0.4,0.6,0.6,1,0.7,1.2h0c-0.1-0.8-0.2-1.7-0.1-2.5V30h3L352.9,48.9z"/>
<path class="st0" d="M379.7,48.9H376l-3-5.1c-0.2-0.4-0.5-0.8-0.8-1.2c-0.2-0.3-0.5-0.6-0.8-0.8c-0.3-0.2-0.6-0.4-0.9-0.5
	c-0.3-0.1-0.7-0.1-1.1-0.1h-1.3v7.7H365V30h6.2c0.8,0,1.7,0.1,2.5,0.3c0.7,0.2,1.4,0.5,2,1c0.6,0.4,1,1,1.3,1.6
	c0.3,0.7,0.5,1.5,0.5,2.2c0,0.6-0.1,1.2-0.3,1.8c-0.2,0.5-0.5,1-0.8,1.5c-0.4,0.4-0.8,0.8-1.3,1.1c-0.5,0.3-1.1,0.6-1.7,0.7v0
	c0.3,0.2,0.6,0.4,0.9,0.6c0.3,0.2,0.5,0.5,0.7,0.7c0.2,0.3,0.5,0.5,0.7,0.8c0.2,0.3,0.5,0.7,0.8,1.1L379.7,48.9z M368.2,32.5v6.1
	h2.6c0.5,0,0.9-0.1,1.3-0.2c0.4-0.1,0.8-0.4,1.1-0.6c0.3-0.3,0.5-0.6,0.7-1c0.2-0.4,0.3-0.9,0.2-1.4c0-0.8-0.3-1.6-0.9-2.1
	c-0.7-0.6-1.6-0.8-2.5-0.8L368.2,32.5z"/>
<path class="st0" d="M392.5,48.9h-10.6V30h10.2v2.7H385V38h6.5v2.6H385v5.6h7.5V48.9z"/>
<path class="st0" d="M395,48.2v-3.2c0.3,0.3,0.6,0.5,1,0.7c0.4,0.2,0.8,0.4,1.3,0.5c0.4,0.1,0.9,0.3,1.3,0.3
	c0.4,0.1,0.8,0.1,1.2,0.1c1,0.1,2.1-0.1,3-0.7c0.6-0.4,1-1.1,1-1.9c0-0.4-0.1-0.8-0.3-1.2c-0.2-0.4-0.5-0.7-0.9-0.9
	c-0.4-0.3-0.9-0.6-1.4-0.8l-1.7-0.8c-0.7-0.3-1.3-0.7-1.8-1c-0.5-0.3-1-0.7-1.5-1.2c-0.4-0.4-0.8-0.9-1-1.5
	c-0.2-0.6-0.4-1.2-0.3-1.9c0-0.8,0.2-1.6,0.6-2.3c0.4-0.7,0.9-1.2,1.6-1.6c0.7-0.5,1.4-0.8,2.2-1c0.8-0.2,1.7-0.3,2.6-0.3
	c1.5-0.1,3,0.1,4.3,0.7v3.1c-1.2-0.8-2.7-1.2-4.2-1.2c-0.5,0-0.9,0-1.4,0.1c-0.4,0.1-0.9,0.2-1.2,0.4c-0.4,0.2-0.7,0.5-0.9,0.8
	c-0.2,0.3-0.4,0.7-0.3,1.1c0,0.4,0.1,0.8,0.3,1.1c0.2,0.3,0.5,0.6,0.8,0.9c0.4,0.3,0.8,0.5,1.2,0.8c0.5,0.2,1.1,0.5,1.7,0.8
	s1.3,0.6,1.9,1.1c0.6,0.4,1.1,0.8,1.5,1.2c0.4,0.4,0.8,1,1.1,1.5c0.3,0.6,0.4,1.3,0.4,1.9c0.1,1.6-0.8,3.2-2.2,4
	c-0.7,0.4-1.5,0.7-2.3,0.9c-0.9,0.2-1.8,0.3-2.7,0.3c-0.4,0-0.8,0-1.2-0.1c-0.5,0-0.9-0.1-1.4-0.2c-0.5-0.1-0.9-0.2-1.4-0.3
	C395.7,48.5,395.3,48.4,395,48.2z"/>
<path class="st0" d="M413.7,42.1v6.9h-3.1V30h5.8c1.8-0.1,3.6,0.4,5.1,1.5c1.2,1.1,1.9,2.7,1.8,4.3c0.1,1.7-0.6,3.4-1.9,4.5
	c-1.4,1.2-3.2,1.9-5.1,1.8L413.7,42.1z M413.7,32.6v6.9h2c1.1,0.1,2.2-0.3,3.1-0.9c0.7-0.7,1.1-1.6,1.1-2.6c0-2.2-1.3-3.3-3.9-3.3
	L413.7,32.6z"/>
<path class="st0" d="M441,41.3c0,5.3-2.5,8-7.5,8c-4.8,0-7.2-2.6-7.2-7.7V30h3.1v10.9c0,3.7,1.4,5.6,4.3,5.6c2.8,0,4.2-1.8,4.2-5.4
	V30h3.1L441,41.3z"/>
<path class="st0" d="M445.4,48.9V30h6c1.5-0.1,3.1,0.3,4.3,1.2c1,0.7,1.6,1.9,1.6,3.1c0,1-0.3,2-0.9,2.8c-0.6,0.8-1.5,1.4-2.5,1.7v0
	c1.2,0.1,2.3,0.6,3.1,1.5c0.8,0.9,1.2,2,1.2,3.2c0,1.5-0.7,3-1.9,3.9c-1.4,1-3.1,1.6-4.8,1.5L445.4,48.9z M448.6,32.5v5.4h2
	c0.9,0.1,1.8-0.2,2.6-0.8c0.6-0.5,1-1.4,0.9-2.2c0-1.6-1.1-2.4-3.2-2.4L448.6,32.5z M448.6,40.4v6h2.7c1,0.1,1.9-0.2,2.7-0.8
	c0.7-0.6,1-1.4,1-2.2c0-2-1.4-2.9-4.1-3H448.6z"/>
<path class="st0" d="M472.2,48.9h-10.5V30h3.1v16.3h7.3L472.2,48.9z"/>
<path class="st0" d="M476.5,28.2c-0.4,0-0.8-0.2-1.1-0.4c-0.3-0.3-0.5-0.7-0.5-1.1c0-0.4,0.2-0.8,0.5-1.1c0.3-0.3,0.7-0.4,1.2-0.4
	c0.4,0,0.8,0.1,1.2,0.4c0.3,0.3,0.5,0.7,0.5,1.1c0,0.4-0.2,0.8-0.5,1.1C477.4,28.1,476.9,28.3,476.5,28.2z M478.2,48.9h-3.2V30h3.2
	V48.9z"/>
<path class="st0" d="M497.2,48.9h-4.1l-6.6-8.7c-0.2-0.2-0.3-0.4-0.5-0.7h0v9.3h-3.1V30h3.1v8.9h0c0.1-0.2,0.3-0.4,0.5-0.6l6.3-8.2
	h3.8l-7.4,9.1L497.2,48.9z"/>
<path class="st0" d="M514.9,48.9h-3.4l-1.7-4.8h-7.4l-1.6,4.8h-3.4l7.1-18.9h3.5L514.9,48.9z M508.9,41.5l-2.6-7.5
	c-0.1-0.4-0.2-0.8-0.2-1.2h0c-0.1,0.4-0.1,0.8-0.3,1.2l-2.6,7.5H508.9z"/>
<path class="st0" d="M516.7,48.2v-3.2c0.3,0.3,0.6,0.5,1,0.7c0.4,0.2,0.8,0.4,1.3,0.5c0.4,0.1,0.9,0.3,1.3,0.3
	c0.4,0.1,0.8,0.1,1.2,0.1c1,0.1,2.1-0.1,3-0.7c0.6-0.4,1-1.1,1-1.9c0-0.4-0.1-0.8-0.3-1.2c-0.2-0.4-0.5-0.7-0.9-0.9
	c-0.4-0.3-0.9-0.6-1.4-0.8l-1.7-0.8c-0.7-0.3-1.3-0.7-1.8-1c-0.5-0.3-1-0.7-1.5-1.2c-0.4-0.4-0.8-0.9-1-1.5
	c-0.2-0.6-0.4-1.2-0.3-1.9c0-0.8,0.2-1.6,0.6-2.3c0.4-0.7,0.9-1.2,1.6-1.6c0.7-0.5,1.4-0.8,2.2-1c0.8-0.2,1.7-0.3,2.6-0.3
	c1.5-0.1,3,0.1,4.3,0.7v3.1c-1.2-0.8-2.7-1.2-4.2-1.2c-0.5,0-0.9,0-1.4,0.1c-0.4,0.1-0.9,0.2-1.2,0.4c-0.4,0.2-0.7,0.5-0.9,0.8
	c-0.2,0.3-0.4,0.7-0.3,1.1c0,0.4,0.1,0.8,0.3,1.1c0.2,0.3,0.5,0.6,0.8,0.9c0.4,0.3,0.8,0.5,1.2,0.8c0.5,0.2,1.1,0.5,1.7,0.8
	c0.6,0.3,1.3,0.6,1.9,1.1c0.6,0.4,1.1,0.8,1.5,1.2c0.4,0.4,0.8,1,1.1,1.5c0.3,0.6,0.4,1.3,0.4,1.9c0.1,1.6-0.8,3.2-2.2,4
	c-0.7,0.4-1.5,0.7-2.3,0.9c-0.9,0.2-1.8,0.3-2.7,0.3c-0.4,0-0.8,0-1.2-0.1c-0.5,0-0.9-0.1-1.4-0.2c-0.5-0.1-0.9-0.2-1.4-0.3
	C517.3,48.5,517,48.4,516.7,48.2z"/>
<path class="st0" d="M535.4,48.9h-3.2V30h3.2V48.9z"/>
<path class="st0" d="M199.1,83.7h-3.4l-9-13.9c-0.2-0.3-0.4-0.7-0.6-1.1H186c0.1,0.9,0.1,1.7,0.1,2.6v12.4h-3v-19h3.7l8.6,13.6
	c0.4,0.6,0.6,1,0.7,1.2h0c-0.1-0.8-0.2-1.7-0.1-2.5V64.7h3L199.1,83.7z"/>
<path class="st0" d="M202.6,72.8h14.4c-0.1-1.6-0.8-3.1-2-4.2c-1.2-1.1-2.8-1.6-4.5-1.5c-1.9,0-3.8,0.5-5.4,1.6v-2.9
	c1.7-1,3.7-1.5,5.7-1.4c2.6-0.1,5.1,0.8,6.9,2.6c1.8,1.9,2.7,4.5,2.5,7.1c0.1,2.6-0.8,5.1-2.5,7.1c-1.7,1.9-4.1,2.9-6.7,2.8
	c-2.4,0.1-4.8-0.9-6.4-2.8C203.3,79.2,202.6,76.4,202.6,72.8z M216.9,75.4h-11c0,1.5,0.5,3,1.5,4.2c1,1.1,2.4,1.7,3.8,1.6
	c1.5,0.1,3-0.5,4-1.6C216.3,78.5,216.9,77,216.9,75.4L216.9,75.4z"/>
<path class="st0" d="M231.6,83.9c-1.3,0-2.5-0.2-3.7-0.7c-1.1-0.5-2-1.1-2.8-2c-0.8-0.9-1.4-1.9-1.8-3c-0.4-1.2-0.7-2.6-0.6-3.9
	c0-1.4,0.2-2.8,0.6-4.1c0.4-1.2,1-2.2,1.9-3.2c0.8-0.9,1.8-1.6,2.9-2c1.2-0.5,2.5-0.7,3.9-0.7c1.2,0,2.5,0.2,3.6,0.7
	c1.1,0.5,2,1.1,2.8,2c0.8,0.9,1.4,1.9,1.8,3c0.4,1.2,0.7,2.6,0.6,3.9c0,1.7-0.3,3.4-0.9,4.9c-0.6,1.3-1.5,2.5-2.6,3.4l5.5,4h-4.8
	l-3.4-2.6c-0.5,0.1-0.9,0.2-1.4,0.3C232.6,83.9,232.1,83.9,231.6,83.9z M231.7,67.1c-0.8,0-1.6,0.2-2.4,0.5
	c-0.7,0.3-1.4,0.8-1.9,1.4c-0.5,0.7-1,1.4-1.2,2.2c-0.3,0.9-0.4,1.9-0.4,2.9c0,1,0.1,1.9,0.4,2.9c0.2,0.8,0.6,1.6,1.2,2.2
	c1,1.2,2.5,2,4.1,1.9c0.8,0,1.7-0.2,2.4-0.5c0.7-0.3,1.3-0.8,1.8-1.4c0.5-0.6,0.9-1.4,1.2-2.2c0.3-1,0.4-1.9,0.4-2.9
	c0-1-0.1-2-0.4-3c-0.2-0.8-0.6-1.6-1.1-2.2c-0.5-0.6-1.1-1.1-1.8-1.4C233.4,67.3,232.5,67.1,231.7,67.1z"/>
<path class="st0" d="M254.7,83.7h-10.5v-19h3.1V81h7.3L254.7,83.7z"/>
<path class="st0" d="M259,62.9c-0.4,0-0.8-0.2-1.1-0.4c-0.3-0.3-0.5-0.7-0.5-1.1c0-0.4,0.2-0.8,0.5-1.1c0.7-0.6,1.6-0.6,2.3,0
	c0.3,0.3,0.5,0.7,0.5,1.1c0,0.4-0.2,0.8-0.5,1.1C259.8,62.8,259.4,62.9,259,62.9z M260.7,83.7h-3.2v-19h3.2L260.7,83.7z"/>
<path class="st0" d="M278.5,64.7l-6.2,12.1v6.9h-3.1v-6.8l-6-12.1h3.6l3.7,8.1c0,0.1,0.2,0.5,0.4,1.1l0,0c0.1-0.4,0.3-0.7,0.4-1.1
	l3.9-8.1L278.5,64.7z"/>
<path class="st0" d="M294.1,64.7l-6.2,12.1v6.9h-3.1v-6.8l-6-12.1h3.6l3.7,8.1c0,0.1,0.2,0.5,0.4,1.1l0,0c0.1-0.4,0.3-0.7,0.4-1.1
	l3.9-8.1L294.1,64.7z"/>
<path class="st0" d="M310,83.7h-3.5l-1.7-4.8h-7.5l-1.6,4.8h-3.4l7.1-19h3.5L310,83.7z M304,76.3l-2.6-7.6c-0.1-0.4-0.2-0.8-0.2-1.2
	h0c-0.1,0.4-0.1,0.8-0.3,1.2l-2.6,7.5L304,76.3z"/>
<path class="st0" d="M322.9,67.3h-5.4v16.3h-3.1V67.3h-5.4v-2.7h14L322.9,67.3z"/>
<path class="st0" d="M326.4,80.5l-2,6.6h-2.3l1.5-6.6H326.4z"/>
<path class="st0" d="M352.4,83.7h-3.7l-3-5.1c-0.2-0.4-0.5-0.8-0.8-1.2c-0.2-0.3-0.5-0.6-0.8-0.8c-0.3-0.2-0.6-0.4-0.9-0.5
	c-0.3-0.1-0.7-0.1-1.1-0.1h-1.3v7.7h-3.1v-19h6.2c0.8,0,1.7,0.1,2.5,0.3c0.7,0.2,1.4,0.5,2,1c0.6,0.4,1,1,1.3,1.6
	c0.3,0.7,0.5,1.5,0.5,2.2c0,0.6-0.1,1.2-0.3,1.8c-0.2,0.5-0.5,1-0.8,1.5c-0.4,0.4-0.8,0.8-1.3,1.1c-0.5,0.3-1.1,0.6-1.7,0.7v0
	c0.3,0.2,0.6,0.4,0.9,0.6c0.3,0.2,0.5,0.5,0.7,0.7c0.2,0.3,0.5,0.5,0.7,0.8c0.2,0.3,0.5,0.7,0.8,1.1L352.4,83.7z M340.9,67.3v6.1
	h2.6c0.5,0,0.9-0.1,1.3-0.2c0.4-0.1,0.8-0.4,1.1-0.6c0.3-0.3,0.5-0.6,0.7-1c0.2-0.4,0.3-0.9,0.2-1.4c0-0.8-0.3-1.6-0.9-2.1
	c-0.7-0.6-1.6-0.8-2.5-0.8L340.9,67.3z"/>
<path class="st0" d="M370.2,83.7h-3.5l-1.7-4.8h-7.5l-1.6,4.8h-3.4l7.1-19h3.5L370.2,83.7z M364.2,76.3l-2.6-7.6
	c-0.1-0.4-0.2-0.8-0.2-1.2h0c-0.1,0.4-0.1,0.8-0.3,1.2l-2.6,7.5L364.2,76.3z"/>
<path class="st0" d="M372.8,83.7v-19h6c1.5-0.1,3.1,0.3,4.4,1.2c1,0.7,1.6,1.9,1.6,3.1c0,1-0.3,2-0.9,2.8c-0.6,0.8-1.5,1.4-2.5,1.7
	v0c1.2,0.1,2.3,0.6,3.1,1.5c0.8,0.9,1.2,2,1.2,3.2c0,1.5-0.7,3-1.9,3.9c-1.4,1-3.1,1.6-4.8,1.5L372.8,83.7z M375.9,67.2v5.4h2
	c0.9,0.1,1.8-0.2,2.6-0.8c0.6-0.6,1-1.4,0.9-2.2c0-1.6-1.1-2.4-3.2-2.4L375.9,67.2z M375.9,75.2v6h2.7c1,0.1,1.9-0.2,2.7-0.8
	c0.7-0.6,1-1.4,1-2.2c0-2-1.4-2.9-4.1-2.9L375.9,75.2z"/>
<path class="st0" d="M390.7,62.9c-0.4,0-0.8-0.2-1.1-0.4c-0.3-0.3-0.5-0.7-0.5-1.1c0-0.4,0.2-0.8,0.5-1.1c0.7-0.6,1.6-0.6,2.3,0
	c0.3,0.3,0.5,0.7,0.5,1.1c0,0.4-0.2,0.8-0.5,1.1C391.5,62.8,391.1,62.9,390.7,62.9z M392.4,83.7h-3.2v-19h3.2L392.4,83.7z"/>
<path class="st0" d="M409.2,67.3h-5.4v16.3h-3.1V67.3h-5.4v-2.7h14L409.2,67.3z"/>
<path class="st0" d="M410.7,72.8h14.4c-0.1-1.6-0.8-3.1-2-4.2c-1.2-1.1-2.8-1.6-4.5-1.5c-1.9,0-3.8,0.5-5.3,1.6v-2.9
	c1.7-1,3.7-1.5,5.7-1.4c2.6-0.1,5.1,0.8,6.9,2.6c1.8,1.9,2.7,4.5,2.5,7.1c0.1,2.6-0.8,5.1-2.5,7.1c-1.7,1.9-4.1,2.9-6.7,2.8
	c-2.4,0.1-4.8-0.9-6.3-2.8C411.4,79.2,410.7,76.4,410.7,72.8z M425.1,75.4h-11c0,1.5,0.5,3,1.4,4.2c1,1.1,2.4,1.7,3.8,1.6
	c1.5,0.1,3-0.5,4-1.6C424.4,78.5,425,77,425.1,75.4L425.1,75.4z"/>
<path class="st0" d="M454.2,64.7l-6.8,19h-3.5l-6.7-19h3.4l4.7,14.4c0.2,0.5,0.3,1.1,0.3,1.6h0c0.1-0.6,0.2-1.1,0.4-1.6l4.8-14.4
	H454.2z"/>
<path class="st0" d="M455.4,72.8h14.4c-0.1-1.6-0.8-3.1-2-4.2c-1.2-1.1-2.8-1.6-4.5-1.5c-1.9,0-3.8,0.5-5.3,1.6v-2.9
	c1.7-1,3.7-1.5,5.7-1.4c2.6-0.1,5.1,0.8,6.9,2.6c1.8,1.9,2.7,4.5,2.5,7.1c0.1,2.6-0.8,5.1-2.5,7.1c-1.7,1.9-4.1,2.9-6.7,2.8
	c-2.4,0.1-4.8-0.9-6.3-2.8C456.2,79.2,455.4,76.4,455.4,72.8z M469.8,75.4h-11c0,1.5,0.5,3.1,1.5,4.3c1,1.1,2.4,1.7,3.8,1.6
	c1.5,0.1,3-0.5,4-1.6C469.2,78.5,469.8,77,469.8,75.4L469.8,75.4z"/>
<path class="st0" d="M497.3,64.7l-6.2,12.1v6.9h-3.1v-6.8l-6-12.1h3.5l3.7,8.1c0,0.1,0.2,0.5,0.4,1.1l0,0c0.1-0.4,0.3-0.7,0.4-1.1
	l3.9-8.1L497.3,64.7z"/>
<path class="st0" d="M514.3,76c0,5.3-2.5,8-7.5,8c-4.8,0-7.2-2.6-7.2-7.7V64.7h3.1v11c0,3.7,1.4,5.6,4.3,5.6c2.8,0,4.2-1.8,4.2-5.4
	V64.7h3.1L514.3,76z M504.1,63c-0.4,0-0.9-0.2-1.2-0.5c-0.3-0.3-0.5-0.7-0.5-1.1c0-0.4,0.2-0.8,0.5-1.1c0.3-0.3,0.7-0.4,1.1-0.4
	c0.4,0,0.9,0.2,1.2,0.4c0.3,0.3,0.5,0.7,0.5,1.1c0,0.4-0.2,0.8-0.5,1.1C504.9,62.8,504.5,62.9,504.1,63L504.1,63z M509.6,63
	c-0.4,0-0.8-0.2-1.1-0.4c-0.6-0.6-0.6-1.5-0.1-2.1c0,0,0,0,0.1-0.1c0.3-0.3,0.7-0.4,1.1-0.4c0.4,0,0.9,0.1,1.2,0.4
	c0.3,0.3,0.5,0.7,0.5,1.1c0,0.4-0.2,0.8-0.5,1.1C510.5,62.8,510,62.9,509.6,63L509.6,63z"/>
<path class="st0" d="M533.1,83.7H529l-6.6-8.7c-0.2-0.2-0.3-0.4-0.5-0.7h0v9.3h-3.1v-19h3.1v8.9h0c0.1-0.2,0.3-0.4,0.5-0.6l6.4-8.2
	h3.8l-7.4,9.1L533.1,83.7z"/>
<path class="st0" d="M534.4,82.9v-3.2c0.3,0.3,0.6,0.5,1,0.7c0.4,0.2,0.8,0.4,1.3,0.5c0.4,0.1,0.9,0.3,1.3,0.3
	c0.4,0.1,0.8,0.1,1.2,0.1c1,0.1,2.1-0.1,3-0.7c0.6-0.4,1-1.1,1-1.9c0-0.4-0.1-0.8-0.3-1.2c-0.2-0.4-0.5-0.7-0.9-0.9
	c-0.4-0.3-0.9-0.6-1.4-0.8l-1.7-0.8c-0.7-0.3-1.3-0.7-1.8-1c-0.5-0.3-1-0.7-1.5-1.2c-0.4-0.4-0.8-0.9-1-1.5
	c-0.2-0.6-0.4-1.2-0.3-1.9c0-0.8,0.2-1.6,0.6-2.3c0.4-0.7,0.9-1.2,1.6-1.6c0.7-0.5,1.4-0.8,2.2-1c0.8-0.2,1.7-0.3,2.6-0.3
	c1.5-0.1,3,0.1,4.3,0.7v3.1c-1.2-0.8-2.7-1.2-4.2-1.2c-0.5,0-0.9,0-1.4,0.1c-0.4,0.1-0.9,0.2-1.2,0.4c-0.4,0.2-0.7,0.5-0.9,0.8
	c-0.2,0.3-0.4,0.7-0.3,1.1c0,0.4,0.1,0.8,0.3,1.1c0.2,0.3,0.5,0.6,0.8,0.9c0.4,0.3,0.8,0.5,1.2,0.8c0.5,0.2,1.1,0.5,1.7,0.8
	s1.3,0.6,1.9,1.1c0.6,0.4,1.1,0.8,1.5,1.2c0.4,0.4,0.8,1,1.1,1.5c0.3,0.6,0.4,1.3,0.4,1.9c0.1,1.6-0.8,3.2-2.2,4
	c-0.7,0.4-1.5,0.7-2.3,0.9c-0.9,0.2-1.8,0.3-2.7,0.3c-0.4,0-0.8,0-1.2-0.1c-0.5,0-0.9-0.1-1.4-0.2c-0.5-0.1-0.9-0.2-1.4-0.3
	C535.1,83.2,534.7,83.1,534.4,82.9z"/>
<path class="st0" d="M548.7,72.8h14.4c-0.1-1.6-0.8-3.1-2-4.2c-1.2-1.1-2.8-1.6-4.5-1.5c-1.9,0-3.8,0.5-5.3,1.6v-2.9
	c1.7-1,3.7-1.5,5.7-1.4c2.6-0.1,5.1,0.8,6.9,2.6c1.8,1.9,2.7,4.5,2.5,7.1c0.1,2.6-0.8,5.1-2.5,7.1c-1.7,1.9-4.1,2.9-6.7,2.8
	c-2.4,0.1-4.8-0.9-6.3-2.8C549.4,79.2,548.7,76.4,548.7,72.8z M563.1,75.4h-11c0,1.5,0.5,3.1,1.5,4.3c1,1.1,2.4,1.7,3.8,1.6
	c1.5,0.1,3-0.5,4-1.6C562.4,78.5,563.1,77,563.1,75.4L563.1,75.4z"/>
<path class="st0" d="M584.3,83.7h-4.1l-6.6-8.7c-0.2-0.2-0.3-0.4-0.5-0.7h0v9.3h-3.1v-19h3.1v8.9h0c0.1-0.2,0.3-0.4,0.5-0.6l6.3-8.2
	h3.8l-7.4,9.1L584.3,83.7z"/>
<path class="st0" d="M195.2,102h-5.4v16.3h-3.1V102h-5.4v-2.7h14L195.2,102z"/>
<path class="st0" d="M208.6,118.3H198V99.4h10.2v2.7h-7.1v5.4h6.5v2.6h-6.5v5.6h7.5V118.3z"/>
<path class="st0" d="M226.4,118.3h-3.8l-3.9-7c-0.1-0.3-0.3-0.6-0.4-0.9h0c-0.1,0.2-0.2,0.5-0.4,0.9l-4,7h-3.8l6.2-9.5l-5.7-9.4h3.8
	l3.4,6.4c0.2,0.4,0.4,0.8,0.6,1.3l0,0c0.3-0.6,0.5-1,0.7-1.3l3.5-6.3h3.5l-5.8,9.4L226.4,118.3z"/>
<path class="st0" d="M245.1,118.3h-3.4l-9-13.9c-0.2-0.3-0.4-0.7-0.6-1.1H232c0.1,0.9,0.1,1.7,0.1,2.6v12.4h-3V99.4h3.7l8.6,13.6
	c0.4,0.6,0.6,1,0.7,1.2h0c-0.1-0.8-0.2-1.7-0.1-2.5V99.4h3L245.1,118.3z"/>
<path class="st0" d="M257.6,118.7c-2.5,0.1-4.9-0.9-6.6-2.7c-1.7-1.9-2.6-4.4-2.5-6.9c-0.1-2.7,0.8-5.3,2.5-7.3
	c1.8-1.9,4.3-2.8,6.8-2.7c2.4-0.1,4.8,0.9,6.4,2.6c1.7,1.9,2.6,4.4,2.4,6.9c0.1,2.7-0.8,5.3-2.5,7.3
	C262.5,117.8,260.1,118.8,257.6,118.7z M257.7,101.8c-1.6,0-3.2,0.7-4.2,1.9c-2.1,3.1-2.1,7.1,0,10.2c1,1.3,2.5,2,4.1,1.9
	c1.6,0.1,3.2-0.6,4.3-1.8c1.1-1.5,1.7-3.3,1.6-5.1c0.1-1.9-0.4-3.7-1.5-5.2C261,102.4,259.4,101.7,257.7,101.8L257.7,101.8z"/>
<path class="st0" d="M280.7,118.3h-10.5V99.4h3.1v16.3h7.3L280.7,118.3z"/>
<path class="st0" d="M290.4,118.7c-2.5,0.1-4.9-0.9-6.6-2.7c-1.7-1.9-2.6-4.4-2.5-6.9c-0.1-2.7,0.8-5.3,2.5-7.3
	c1.8-1.9,4.3-2.8,6.8-2.7c2.4-0.1,4.8,0.9,6.4,2.6c1.7,1.9,2.6,4.4,2.4,6.9c0.1,2.7-0.8,5.3-2.5,7.3
	C295.4,117.8,292.9,118.8,290.4,118.7z M290.6,101.8c-1.6,0-3.2,0.7-4.2,1.9c-2.1,3.1-2.1,7.1,0,10.2c1,1.3,2.5,2,4.1,1.9
	c1.6,0.1,3.2-0.6,4.3-1.8c1.1-1.5,1.7-3.3,1.6-5.1c0.1-1.9-0.4-3.7-1.5-5.2C293.8,102.4,292.2,101.7,290.6,101.8L290.6,101.8z"/>
<path class="st0" d="M317.9,117c-2,1.1-4.3,1.6-6.6,1.6c-2.5,0.1-5-0.8-6.8-2.6c-1.8-1.9-2.7-4.4-2.6-6.9c-0.1-2.7,0.9-5.3,2.9-7.2
	c1.9-1.9,4.5-2.9,7.2-2.8c1.8-0.1,3.6,0.3,5.3,0.9v3.2c-1.5-1-3.4-1.5-5.2-1.5c-1.9-0.1-3.7,0.7-5,2c-1.3,1.4-2,3.2-1.9,5.2
	c-0.1,1.9,0.5,3.7,1.7,5.1c1.2,1.3,2.8,2,4.5,1.9c1.2,0,2.3-0.2,3.4-0.8v-4.5h-4V108h7.1L317.9,117z"/>
<path class="st0" d="M323.5,97.7c-0.4,0-0.8-0.2-1.1-0.4c-0.3-0.3-0.5-0.7-0.5-1.1c0-0.4,0.2-0.8,0.5-1.1c0.7-0.6,1.6-0.6,2.3,0
	c0.3,0.3,0.5,0.7,0.5,1.1c0,0.4-0.2,0.8-0.5,1.1C324.3,97.5,323.9,97.7,323.5,97.7z M325.1,118.3h-3.2v-19h3.2V118.3z"/>
<path class="st0" d="M343,99.4l-6.2,12.1v6.9h-3.1v-6.8l-6-12.1h3.6l3.7,8.1c0,0.1,0.2,0.5,0.4,1.1l0,0c0.1-0.4,0.3-0.7,0.4-1.1
	l3.9-8.1L343,99.4z"/>
<path class="st0" d="M358.9,118.3h-3.5l-1.7-4.8h-7.4l-1.6,4.8h-3.4l7.1-18.9h3.5L358.9,118.3z M352.9,110.9l-2.6-7.5
	c-0.1-0.4-0.2-0.8-0.2-1.2h0c-0.1,0.4-0.1,0.8-0.3,1.2l-2.6,7.5H352.9z"/>
<path class="st0" d="M372,118.3h-10.5V99.4h3.1v16.3h7.3L372,118.3z"/>
<path class="st0" d="M391,118.3h-3.5l-1.7-4.8h-7.4l-1.6,4.8h-3.5l7.1-18.9h3.5L391,118.3z M385,110.9l-2.6-7.6
	c-0.1-0.4-0.2-0.8-0.2-1.2h0c-0.1,0.4-0.1,0.8-0.3,1.2l-2.6,7.5L385,110.9z"/>
<path class="st0" d="M408.2,118.3h-3.7l-3-5.1c-0.2-0.4-0.5-0.8-0.8-1.2c-0.2-0.3-0.5-0.6-0.8-0.8c-0.3-0.2-0.6-0.4-0.9-0.5
	c-0.3-0.1-0.7-0.1-1.1-0.1h-1.3v7.7h-3.1V99.4h6.2c0.8,0,1.7,0.1,2.5,0.3c0.7,0.2,1.4,0.5,2,1c0.6,0.4,1,1,1.3,1.6
	c0.3,0.7,0.5,1.5,0.5,2.2c0,0.6-0.1,1.2-0.3,1.8c-0.2,0.5-0.5,1-0.8,1.5c-0.4,0.4-0.8,0.8-1.3,1.1c-0.5,0.3-1.1,0.6-1.7,0.7v0
	c0.3,0.2,0.6,0.4,0.9,0.6c0.3,0.2,0.5,0.5,0.7,0.7c0.2,0.3,0.5,0.5,0.7,0.8c0.2,0.3,0.5,0.7,0.8,1.1L408.2,118.3z M396.7,101.9v6.1
	h2.6c0.5,0,0.9-0.1,1.3-0.2c0.4-0.1,0.8-0.4,1.1-0.6c0.3-0.3,0.5-0.6,0.7-1c0.2-0.4,0.3-0.9,0.2-1.4c0-0.8-0.3-1.6-0.9-2.1
	c-0.7-0.6-1.6-0.8-2.5-0.8L396.7,101.9z"/>
<path class="st0" d="M433.9,118.3h-3.4l-9-13.9c-0.2-0.3-0.4-0.7-0.6-1.1h-0.1c0.1,0.9,0.1,1.7,0.1,2.6v12.4h-3V99.4h3.7l8.7,13.6
	c0.4,0.6,0.6,1,0.7,1.2h0c-0.1-0.8-0.2-1.7-0.1-2.5V99.4h3L433.9,118.3z"/>
<path class="st0" d="M454.2,118.3h-3.5l-1.7-4.8h-7.5l-1.6,4.8h-3.4l7.1-18.9h3.5L454.2,118.3z M448.2,110.9l-2.6-7.5
	c-0.1-0.4-0.2-0.8-0.2-1.2h0c-0.1,0.4-0.1,0.8-0.3,1.2l-2.6,7.5H448.2z"/>
<path class="st0" d="M470.3,100.7l-10.4,14.9h10.2v2.6h-14.6v-1.4l10.4-14.8h-9.6v-2.7h14L470.3,100.7z"/>
<path class="st0" d="M474.8,97.7c-0.4,0-0.8-0.2-1.1-0.4c-0.3-0.3-0.5-0.7-0.5-1.1c0-0.4,0.2-0.8,0.5-1.1c0.7-0.6,1.6-0.6,2.3,0
	c0.3,0.3,0.5,0.7,0.5,1.1c0,0.4-0.2,0.8-0.5,1.1C475.6,97.5,475.2,97.7,474.8,97.7z M476.4,118.3h-3.2V99.4h3.2V118.3z"/>
<path class="st0" d="M495.7,118.3h-3.7l-3-5.1c-0.2-0.4-0.5-0.8-0.8-1.2c-0.2-0.3-0.5-0.6-0.8-0.8c-0.3-0.2-0.6-0.4-0.9-0.5
	c-0.3-0.1-0.7-0.1-1.1-0.1h-1.3v7.7h-3.1V99.4h6.2c0.8,0,1.7,0.1,2.5,0.3c0.7,0.2,1.4,0.5,2,1c0.6,0.4,1,1,1.3,1.6
	c0.3,0.7,0.5,1.5,0.5,2.2c0,0.6-0.1,1.2-0.3,1.8c-0.2,0.5-0.5,1-0.8,1.5c-0.4,0.4-0.8,0.8-1.3,1.1c-0.5,0.3-1.1,0.6-1.7,0.7v0
	c0.3,0.2,0.6,0.4,0.9,0.6c0.3,0.2,0.5,0.5,0.7,0.7c0.2,0.3,0.5,0.5,0.7,0.8c0.2,0.3,0.5,0.7,0.8,1.1L495.7,118.3z M484.2,101.9v6.1
	h2.6c0.5,0,0.9-0.1,1.3-0.2c0.4-0.1,0.8-0.4,1.1-0.6c0.3-0.3,0.5-0.6,0.7-1c0.2-0.4,0.3-0.9,0.2-1.4c0-0.8-0.3-1.6-0.9-2.1
	c-0.7-0.6-1.6-0.8-2.5-0.8L484.2,101.9z"/>
<path class="st0" d="M508.4,118.3h-10.5V99.4h3.1v16.3h7.3V118.3z"/>
<path class="st0" d="M512.7,97.7c-0.4,0-0.8-0.2-1.1-0.4c-0.3-0.3-0.5-0.7-0.5-1.1c0-0.4,0.2-0.8,0.5-1.1c0.3-0.3,0.7-0.4,1.1-0.4
	c0.4,0,0.8,0.1,1.2,0.4c0.3,0.3,0.5,0.7,0.5,1.1c0,0.4-0.2,0.8-0.5,1.1C513.6,97.5,513.1,97.7,512.7,97.7z M514.4,118.3h-3.2V99.4
	h3.2V118.3z"/>
<path class="st0" d="M532.2,99.4l-6.2,12.1v6.9h-3.1v-6.8l-6-12.1h3.5l3.7,8.1c0,0.1,0.2,0.5,0.4,1.1l0,0c0.1-0.4,0.3-0.7,0.4-1.1
	l3.9-8.1L532.2,99.4z"/>
<path class="st0" d="M536.2,97.7c-0.4,0-0.8-0.2-1.1-0.4c-0.3-0.3-0.5-0.7-0.5-1.1c0-0.4,0.2-0.8,0.5-1.1c0.7-0.6,1.6-0.6,2.3,0
	c0.3,0.3,0.5,0.7,0.5,1.1c0,0.4-0.2,0.8-0.5,1.1C537.1,97.5,536.6,97.7,536.2,97.7z M537.9,118.3h-3.2v-19h3.2V118.3z"/>
<path class="st0" d="M134.1,92.3c-2.4-1-5.1-0.1-6.5,2l-11.3-4.7c0-0.1,0-0.1,0-0.2c0-0.9-0.4-1.7-1.1-2.2c3-9,2.8-18.8-0.6-27.6
	l13-5.4c1.6,2.5,4.8,3.2,7.3,1.6s3.2-4.8,1.6-7.3c-1.6-2.5-4.8-3.2-7.3-1.6c-1.9,1.2-2.8,3.4-2.3,5.6l-13,5.4
	c-2.4-5.3-5.8-10.1-10.2-14c0.5-1.4-0.2-3-1.6-3.5c-0.8-0.3-1.7-0.2-2.5,0.3c-2-1.4-4.2-2.6-6.5-3.6l5.4-13c2.9,0.6,5.7-1.2,6.3-4
	c0.6-2.9-1.2-5.7-4-6.3c-2.9-0.6-5.7,1.2-6.3,4c-0.5,2.2,0.4,4.4,2.3,5.6l-5.4,13c-8.5-3.3-17.8-3.7-26.4-1
	c-0.9-1.4-2.5-2.1-4.1-1.8l-4.2-10.1c2.5-1.6,3.2-4.9,1.6-7.3c-1.6-2.5-4.9-3.2-7.3-1.6c-2.5,1.6-3.2,4.9-1.6,7.3
	c1.2,1.9,3.4,2.8,5.6,2.3l4.2,10.1c-1.3,0.9-2,2.6-1.6,4.2c-8,4.3-14.4,11.1-18,19.4l-13-5.4c0.6-2.9-1.2-5.7-4.1-6.3
	c-2.9-0.6-5.7,1.2-6.3,4.1s1.2,5.7,4.1,6.3c2.2,0.5,4.4-0.5,5.6-2.3l13,5.4c-1.7,4.3-2.6,8.9-2.7,13.6c-1.1,0.5-1.6,1.8-1.1,3
	c0.2,0.5,0.7,1,1.2,1.2c0.3,4,1.2,7.9,2.6,11.7l-13,5.4c-1.6-2.5-4.8-3.2-7.3-1.6c-2.5,1.6-3.2,4.8-1.6,7.3c1.6,2.5,4.8,3.2,7.3,1.6
	c1.9-1.2,2.8-3.4,2.3-5.6l13-5.4c1.4,3.3,3.3,6.3,5.5,9.1c-0.3,0.4-0.4,0.9-0.4,1.4c0,1.5,1.2,2.8,2.8,2.8c0.4,0,0.8-0.1,1.2-0.3
	c3.4,3.2,7.3,5.8,11.6,7.7l-5.4,13c-2.9-0.6-5.7,1.2-6.3,4c-0.6,2.9,1.2,5.7,4,6.3c2.9,0.6,5.7-1.2,6.3-4c0.5-2.2-0.4-4.4-2.3-5.6
	l5.4-13c9.4,3.7,19.9,3.7,29.4,0l5.4,13c-2.5,1.6-3.2,4.9-1.6,7.3c1.6,2.5,4.9,3.2,7.3,1.6c2.5-1.6,3.2-4.9,1.6-7.3
	c-1.2-1.9-3.4-2.8-5.6-2.3l-5.4-13c8.7-3.8,15.8-10.6,20-19.1c0.1,0,0.2,0,0.3,0c0.8,0,1.6-0.4,2.2-1l11.3,4.7
	c-0.6,2.9,1.2,5.7,4,6.3c2.9,0.6,5.7-1.2,6.3-4C137.7,95.9,136.4,93.3,134.1,92.3L134.1,92.3z M62.1,41.6h0.1l7.5,18.2l-7.8,4.3
	c-0.5-0.5-1.1-0.9-1.8-1.2L62.1,41.6z M75,76l-1.5,3.5l-2.1-2L75,76z M69.9,76.1l-6.8-6.4l11.2,4.6L69.9,76.1z M76.7,76.7l4,9.5
	l-5.7-5.4L76.7,76.7z M79.6,87.9c-0.5,0.9-0.7,1.9-0.5,2.9l-10,4.3l5.1-12.3L79.6,87.9z M83.2,85.8c-0.2,0-0.5,0-0.7,0.1L78.4,76
	l8.9,3.7l-3.2,6.2C83.9,85.8,83.5,85.8,83.2,85.8L83.2,85.8z M79.2,74.3L93,68.6v0L88.2,78L79.2,74.3z M93.4,71.9l-1,8l-2.5-1
	L93.4,71.9z M95.6,69.4l0.3-0.1l14.5,17.9l-16.1-6.7L95.6,69.4z M92.2,66.8l-13.8,5.7l6.8-16.3c0.8,0.2,1.5,0.1,2.3-0.2l5.4,8.9
	c-0.4,0.5-0.6,1.1-0.6,1.8C92.3,66.7,92.3,66.8,92.2,66.8L92.2,66.8z M83.4,55.5l-6.8,16.3l-4.6-11.2l10.6-5.8
	C82.9,55.1,83.1,55.3,83.4,55.5z M74.9,72.5l-12.1-5c0.1-0.6,0.1-1.2-0.1-1.8l7.6-4.2L74.9,72.5z M58.7,71H59l2.5,8.6l-6.8,2.8
	L58.4,71C58.5,71,58.6,71,58.7,71L58.7,71z M60.7,70.5c0.1,0,0.2-0.1,0.3-0.2l6.9,6.5l-4.8,2L60.7,70.5z M69.4,78.3l3.3,3.1L67.5,94
	l-3.8-13.3L69.4,78.3z M79.8,92.4c0.9,1.3,2.5,1.9,4,1.6l4.5,10.8l-18.6-8L79.8,92.4z M85.6,93.3c0.9-0.6,1.4-1.5,1.7-2.5l3.8-0.1
	L89.6,103L85.6,93.3z M87.2,88.9c-0.2-0.9-0.7-1.6-1.4-2.2l3.2-6.3l3.1,1.3l-0.9,7.2L87.2,88.9z M94,82.5l14.9,6.2l-15.6,0.2
	L94,82.5z M97.4,68.2c0.3-0.4,0.4-0.9,0.4-1.5c0,0,0-0.1,0-0.1l7.7-3.2l5.9,22.1L97.4,68.2z M97.1,64.8c-0.2-0.2-0.3-0.3-0.5-0.5
	l4.5-17.7l3.9,14.9L97.1,64.8z M99.4,45l0.2,0.1l-4.8,18.8c-0.1,0-0.2,0-0.3,0L89,55c1.3-1.2,1.7-3,1.1-4.6L99.4,45z M81.7,53.1
	l-10.4,5.7l-7.4-18c0.2-0.2,0.4-0.3,0.6-0.5l17.3,10.1C81.5,51.3,81.5,52.2,81.7,53.1L81.7,53.1z M60.1,41.4h0.1l-2,21.3
	c-1.1,0.2-2.2,0.8-2.8,1.7l-8.1-3.4L60.1,41.4z M54.7,66.2c-0.1,0.4-0.1,0.9,0,1.3l-15.4,6l7-10.7L54.7,66.2z M39.2,75.4l16.1-6.2
	c0.3,0.5,0.8,0.9,1.3,1.2l-4.3,13l-1.7,0.7l-11.6-8.1C39.1,75.8,39.2,75.6,39.2,75.4L39.2,75.4z M53.9,84.8l8.1-3.4l3.8,13.2
	L53.4,86L53.9,84.8z M65.1,96.4l-15.2,3.4c-0.2-0.3-0.4-0.5-0.7-0.7l3.7-11.2L65.1,96.4z M65.6,98.2l0.1,0.2l-1.7,4l-11.1-1.4
	L65.6,98.2z M67.4,99.1c0.5,0,1-0.2,1.4-0.6l14.8,6.4L66,102.7L67.4,99.1z M91.3,104.6L91.3,104.6L93,90.8l17.5-0.3L91.3,104.6z
	 M113.5,86.4l-6.3-23.7l5.6-2.3C116.1,68.7,116.3,77.9,113.5,86.4L113.5,86.4z M112.1,58.6l-5.3,2.2l-4-15.2
	C106.8,49.2,110,53.7,112.1,58.6L112.1,58.6z M98.5,42.2c-0.1,0.4-0.1,0.8-0.1,1.2l-9.2,5.4c-0.2-0.2-0.5-0.5-0.7-0.6l3.9-9.4
	C94.5,39.8,96.6,40.9,98.5,42.2z M76.7,35.5c4.8,0,9.5,0.9,14,2.6l-3.9,9.4c-1.5-0.3-3.1,0.2-4.1,1.4L65.4,38.8
	c0.2-0.5,0.2-1.1,0.1-1.7C69.2,36,72.9,35.5,76.7,35.5L76.7,35.5z M58.3,40.1c0.1,0.1,0.2,0.2,0.2,0.3l-13,20l-4.3-1.8
	C44.7,50.7,50.7,44.2,58.3,40.1L58.3,40.1z M44.5,62l-6.6,10c0.2-4,1.1-7.9,2.6-11.7L44.5,62z M38,77.5l10.6,7.4l-8.1,3.4
	C39.2,84.8,38.3,81.2,38,77.5L38,77.5z M50.4,86.2l0.8,0.5l-3.8,11.7c-0.3,0-0.6,0.1-0.9,0.2c-2.1-2.6-3.9-5.5-5.2-8.6L50.4,86.2z
	 M50,102.5l13.3,1.7l-2.3,5.6C56.9,108,53.2,105.5,50,102.5L50,102.5z M62.7,110.5l2.5-6l22.6,2.9c0.3,1,1.2,1.8,2.3,1.8l0.6,1.4
	C81.7,114,71.7,114,62.7,110.5L62.7,110.5z M92.4,109.8l-0.6-1.4c0.6-0.6,0.8-1.5,0.6-2.3l18.5-13.7
	C106.9,100.1,100.4,106.2,92.4,109.8L92.4,109.8z"/>
<path class="st0" d="M61.8,13.9c0.6,0.9,1,1.8,1.2,2.8l10.6-7.8c1.9-1.4,4.4-1.4,6.2,0l10.6,7.8c0.6-2.5,2.2-4.7,4.5-6l-10.8-8
	c-4.9-3.6-10.1-3.5-14.8,0l-10.8,8C59.9,11.4,61,12.5,61.8,13.9z"/>
<path class="st0" d="M91.6,134.7c-0.6-0.9-1-1.8-1.2-2.8l-10.6,7.8c-1.9,1.4-4.4,1.4-6.2,0L63,131.9c-0.6,2.5-2.2,4.7-4.5,6l10.8,8
	c4.9,3.6,10.1,3.5,14.8,0l10.8-8C93.6,137.2,92.4,136.1,91.6,134.7z"/>
<path class="st0" d="M23.4,42.1c1,0.2,1.9,0.6,2.8,1.1l2-13c0.3-2.3,2.1-4.1,4.4-4.4l13-2c-1.3-2.2-1.7-4.9-1-7.4l-13.3,2
	c-6,0.9-9.6,4.7-10.5,10.5l-2,13.3C20.4,41.8,21.9,41.7,23.4,42.1z"/>
<path class="st0" d="M130,106.5c-1-0.2-1.9-0.6-2.8-1.1l-2,13c-0.3,2.3-2.1,4.1-4.4,4.4l-13,2c1.3,2.2,1.7,4.9,1,7.4l13.3-2
	c6-0.9,9.6-4.7,10.5-10.5l2-13.3C133,106.8,131.5,106.9,130,106.5z"/>
<path class="st0" d="M17.7,88.4c0.4-0.2,0.9-0.3,1.4-0.4l-7.8-10.6c-1.4-1.9-1.4-4.4,0-6.2l7.8-10.6c-2.5-0.6-4.7-2.2-6-4.5l-8,10.8
	c-3.6,4.9-3.5,10.1,0,14.8l8,10.8c0.8-1.4,1.9-2.5,3.2-3.3C16.7,88.9,17.2,88.6,17.7,88.4z"/>
<path class="st0" d="M148.3,66.9l-8-10.8c-0.8,1.4-1.9,2.5-3.2,3.3c-0.9,0.6-1.8,1-2.8,1.2l7.8,10.6c1.4,1.9,1.4,4.4,0,6.2L134.3,88
	c2.5,0.6,4.7,2.2,6,4.5l8-10.8C151.9,76.8,151.8,71.6,148.3,66.9z"/>
<path class="st0" d="M28.2,118.4l-2-13c-2.2,1.3-4.9,1.7-7.4,1l2,13.3c0.9,6,4.7,9.6,10.5,10.5l13.3,2c-0.4-1.5-0.5-3.1-0.1-4.6
	c0.2-1,0.6-1.9,1.1-2.8l-13-2C30.3,122.4,28.6,120.6,28.2,118.4z"/>
<path class="st0" d="M125.2,30.2l2,13c2.2-1.3,4.9-1.7,7.4-1l-2-13.3c-0.9-6-4.7-9.6-10.5-10.5l-13.3-2c0.4,1.5,0.5,3.1,0.1,4.6
	c-0.2,1-0.6,1.9-1.1,2.8l13,2C123.1,26.2,124.8,28,125.2,30.2z"/>
</svg>
