<svg id="Слой_1" data-name="Слой 1" xmlns="http://www.w3.org/2000/svg" viewBox="0 0 318 60.31"><defs><style>.cls-1{fill:#0257bf;}.cls-2{isolation:isolate;}</style></defs><title>DMA loqolar_blue V7_320x83</title><line class="cls-1" x1="194.07" x2="194.07" y2="60.31"/><rect class="cls-1" x="193.88" width="0.39" height="60.31"/><g class="cls-2"><g class="cls-2"><path class="cls-1" d="M277.66,26.12A5.83,5.83,0,0,1,277.4,28a3.18,3.18,0,0,1-.73,1.26,2.83,2.83,0,0,1-1.15.71,5.25,5.25,0,0,1-1.63.23h-1.68a.41.41,0,0,1-.31-.12.52.52,0,0,1-.12-.38V22.81a.54.54,0,0,1,.12-.39.41.41,0,0,1,.31-.12H274a4.73,4.73,0,0,1,1.61.25,2.83,2.83,0,0,1,1.11.73,3.1,3.1,0,0,1,.68,1.19A5.12,5.12,0,0,1,277.66,26.12Zm-1.49.05a4.3,4.3,0,0,0-.12-1,2.42,2.42,0,0,0-.37-.83,1.89,1.89,0,0,0-.67-.55,2.49,2.49,0,0,0-1.07-.2h-.73V28.9H274a2.68,2.68,0,0,0,1-.17,1.71,1.71,0,0,0,.67-.52,2.32,2.32,0,0,0,.41-.85A4.71,4.71,0,0,0,276.17,26.17Z" transform="translate(-1 -10.44)"/></g><g class="cls-2"><path class="cls-1" d="M283.69,27.19a4.53,4.53,0,0,1-.16,1.26,2.89,2.89,0,0,1-.5,1,2.22,2.22,0,0,1-.84.63,2.84,2.84,0,0,1-1.17.23,3.05,3.05,0,0,1-1.14-.2,2,2,0,0,1-.79-.58,2.36,2.36,0,0,1-.47-.95,4.45,4.45,0,0,1-.16-1.27,4.64,4.64,0,0,1,.17-1.27,2.75,2.75,0,0,1,.5-1,2.26,2.26,0,0,1,.83-.63,2.89,2.89,0,0,1,1.18-.23,3,3,0,0,1,1.13.2,1.89,1.89,0,0,1,.8.58,2.45,2.45,0,0,1,.47.94A4.94,4.94,0,0,1,283.69,27.19Zm-3-4.48a1,1,0,0,1-.14.59.72.72,0,0,1-.55.17.73.73,0,0,1-.56-.16,1.25,1.25,0,0,1,0-1.17A.72.72,0,0,1,280,22a.71.71,0,0,1,.55.16A.89.89,0,0,1,280.72,22.71Zm1.55,4.54a4.31,4.31,0,0,0,0-.74,1.89,1.89,0,0,0-.2-.58,1,1,0,0,0-.36-.39,1.09,1.09,0,0,0-.57-.14,1.13,1.13,0,0,0-.54.12,1.12,1.12,0,0,0-.38.37,2.07,2.07,0,0,0-.22.58,3.51,3.51,0,0,0-.07.76,4.18,4.18,0,0,0,.06.74,2,2,0,0,0,.19.59,1,1,0,0,0,.37.38,1.09,1.09,0,0,0,.57.14,1.08,1.08,0,0,0,.54-.13.91.91,0,0,0,.37-.36,1.54,1.54,0,0,0,.22-.57A3.61,3.61,0,0,0,282.27,27.25Zm.59-4.54a1,1,0,0,1-.14.59.75.75,0,0,1-.56.17.72.72,0,0,1-.55-.16,1.25,1.25,0,0,1,0-1.17.71.71,0,0,1,.55-.16.72.72,0,0,1,.55.16A.89.89,0,0,1,282.86,22.71Z" transform="translate(-1 -10.44)"/><path class="cls-1" d="M289,24.53v.07a.38.38,0,0,1,0,.1s0,.07,0,.12,0,.09,0,.15l-1.46,4.9a.48.48,0,0,1-.08.16.24.24,0,0,1-.15.1.76.76,0,0,1-.29.05l-.48,0-.47,0a1.55,1.55,0,0,1-.29-.05.36.36,0,0,1-.15-.1.59.59,0,0,1-.07-.16L284,25a2.25,2.25,0,0,1-.05-.22,1.15,1.15,0,0,1,0-.14v-.08a.17.17,0,0,1,0-.1.21.21,0,0,1,.1-.08.87.87,0,0,1,.21,0h.7l.22,0a.24.24,0,0,1,.11.08.5.5,0,0,1,.05.13l1.11,4,0,.15,0-.15,1.09-4a.5.5,0,0,1,0-.13.36.36,0,0,1,.12-.08l.2,0h.67a.88.88,0,0,1,.2,0,.21.21,0,0,1,.1.08A.3.3,0,0,1,289,24.53Z" transform="translate(-1 -10.44)"/><path class="cls-1" d="M291,30a.2.2,0,0,1,0,.11.27.27,0,0,1-.12.07.54.54,0,0,1-.21.05l-.33,0-.33,0a.54.54,0,0,1-.21-.05.27.27,0,0,1-.12-.07.2.2,0,0,1,0-.11V22a.2.2,0,0,1,0-.11.28.28,0,0,1,.12-.08.81.81,0,0,1,.21-.05,2.73,2.73,0,0,1,.66,0,.81.81,0,0,1,.21.05.28.28,0,0,1,.12.08.2.2,0,0,1,0,.11Z" transform="translate(-1 -10.44)"/><path class="cls-1" d="M291.91,27.4A.61.61,0,0,1,292,27a.35.35,0,0,1,.3-.13h3a2.48,2.48,0,0,0-.07-.63,1.34,1.34,0,0,0-.23-.48,1.08,1.08,0,0,0-.42-.3,1.59,1.59,0,0,0-.61-.1,3,3,0,0,0-.63,0,3.61,3.61,0,0,0-.48.13l-.33.13a.57.57,0,0,1-.21.06.11.11,0,0,1-.08,0s0,0-.06-.07a1.57,1.57,0,0,1,0-.16c0-.06,0-.15,0-.25a1.62,1.62,0,0,1,0-.23c0-.06,0-.11,0-.16a.36.36,0,0,1,0-.11.41.41,0,0,1,.05-.09.77.77,0,0,1,.2-.11,2.86,2.86,0,0,1,.4-.15l.57-.12a4.72,4.72,0,0,1,.68,0,3.33,3.33,0,0,1,1.14.18,2.11,2.11,0,0,1,.81.56,2.18,2.18,0,0,1,.49.93,4.77,4.77,0,0,1,.16,1.32,4.43,4.43,0,0,1-.17,1.31,2.74,2.74,0,0,1-.49,1,2.15,2.15,0,0,1-.78.62,2.51,2.51,0,0,1-1,.21,2.55,2.55,0,0,1-1.05-.2,1.9,1.9,0,0,1-.72-.56,2.35,2.35,0,0,1-.41-.84,4.31,4.31,0,0,1-.13-1.05Zm1.34.44a1.67,1.67,0,0,0,.23,1,.86.86,0,0,0,.77.37,1,1,0,0,0,.46-.11,1,1,0,0,0,.32-.3,1.3,1.3,0,0,0,.19-.43,1.91,1.91,0,0,0,.08-.54Z" transform="translate(-1 -10.44)"/><path class="cls-1" d="M300.43,29.42a2.15,2.15,0,0,1,0,.41.55.55,0,0,1-.08.2.36.36,0,0,1-.15.1.93.93,0,0,1-.22.08l-.28.05-.3,0a2.12,2.12,0,0,1-.71-.11,1.22,1.22,0,0,1-.5-.36,1.53,1.53,0,0,1-.29-.6,3.69,3.69,0,0,1-.09-.87V25.57h-.59c-.07,0-.12-.05-.16-.14a1.79,1.79,0,0,1,0-.48,2.63,2.63,0,0,1,0-.3.78.78,0,0,1,0-.19.26.26,0,0,1,.07-.1.17.17,0,0,1,.1,0h.58V23.12a.23.23,0,0,1,0-.11.2.2,0,0,1,.11-.08.81.81,0,0,1,.21-.05h.67a.81.81,0,0,1,.21.05.31.31,0,0,1,.11.08.23.23,0,0,1,0,.11v1.21h1.06a.17.17,0,0,1,.1,0,.24.24,0,0,1,.06.1.74.74,0,0,1,.05.19c0,.08,0,.18,0,.3a1.4,1.4,0,0,1-.06.48c0,.09-.09.14-.15.14h-1.07v2.54a1.46,1.46,0,0,0,.12.67.48.48,0,0,0,.45.22l.2,0,.16-.05.11-.05.09,0,.06,0a.24.24,0,0,1,.05.09s0,.1,0,.17S300.43,29.31,300.43,29.42Z" transform="translate(-1 -10.44)"/></g></g><g class="cls-2"><path class="cls-1" d="M280,43.27a.2.2,0,0,1,0,.11.24.24,0,0,1-.11.08l-.21,0-.34,0-.33,0-.2,0a.24.24,0,0,1-.11-.08.21.21,0,0,1,0-.11V36.88h0l-2,6.39a.33.33,0,0,1-.07.13.41.41,0,0,1-.13.08l-.22,0h-.32l-.31,0a.65.65,0,0,1-.22,0,.32.32,0,0,1-.13-.08.19.19,0,0,1-.07-.11l-2-6.39h0v6.39a.2.2,0,0,1,0,.11.24.24,0,0,1-.11.08l-.21,0-.33,0-.33,0a.81.81,0,0,1-.21,0,.2.2,0,0,1-.11-.08.2.2,0,0,1,0-.11v-7a.68.68,0,0,1,.15-.47.49.49,0,0,1,.39-.17h.94a1.75,1.75,0,0,1,.43,0,.75.75,0,0,1,.31.15.76.76,0,0,1,.22.28,2.61,2.61,0,0,1,.16.43l1.53,4.68h0l1.59-4.67a2,2,0,0,1,.15-.43.88.88,0,0,1,.2-.28.54.54,0,0,1,.26-.16,1.3,1.3,0,0,1,.36,0h1a.62.62,0,0,1,.25,0,.57.57,0,0,1,.18.12.63.63,0,0,1,.1.2,1.1,1.1,0,0,1,0,.27Z" transform="translate(-1 -10.44)"/><path class="cls-1" d="M281.24,40.73a.67.67,0,0,1,.11-.41.39.39,0,0,1,.31-.13h3a2.48,2.48,0,0,0-.07-.63,1.21,1.21,0,0,0-.24-.48,1,1,0,0,0-.41-.3,1.63,1.63,0,0,0-.61-.1,4,4,0,0,0-.64,0,3.44,3.44,0,0,0-.47.13l-.33.13a.56.56,0,0,1-.22.06l-.08,0a.16.16,0,0,1-.05-.08.35.35,0,0,1,0-.16,1.78,1.78,0,0,1,0-.25,1.41,1.41,0,0,1,0-.22.86.86,0,0,1,0-.17l0-.11.06-.09a1.31,1.31,0,0,1,.2-.11,2,2,0,0,1,.4-.14,5.22,5.22,0,0,1,.56-.13,4.94,4.94,0,0,1,.68,0,3,3,0,0,1,1.14.19,2,2,0,0,1,.82.55,2.36,2.36,0,0,1,.49.93,5.32,5.32,0,0,1,0,2.63,2.91,2.91,0,0,1-.49,1,2.16,2.16,0,0,1-.79.62,2.44,2.44,0,0,1-1,.21,2.5,2.5,0,0,1-1-.2,1.9,1.9,0,0,1-.72-.56,2.35,2.35,0,0,1-.41-.84,3.87,3.87,0,0,1-.13-1.05Zm1.33.44a1.66,1.66,0,0,0,.24,1,.85.85,0,0,0,.77.37.94.94,0,0,0,.45-.11.89.89,0,0,0,.32-.29,1.27,1.27,0,0,0,.2-.44,2.34,2.34,0,0,0,.08-.54Z" transform="translate(-1 -10.44)"/><path class="cls-1" d="M289.22,43.51l.15.38a3.09,3.09,0,0,1,.15.41,1.37,1.37,0,0,1,0,.34,1.14,1.14,0,0,1-.09.48.76.76,0,0,1-.25.33,1,1,0,0,1-.37.19,1.39,1.39,0,0,1-.46.07,2.87,2.87,0,0,1-.44,0,2,2,0,0,1-.35-.08l-.19-.07a.2.2,0,0,1-.08-.08.33.33,0,0,1,0-.13c0-.05,0-.12,0-.2a1.14,1.14,0,0,1,0-.34.17.17,0,0,1,.16-.1h.63a.34.34,0,0,0,.24-.07.29.29,0,0,0,.08-.21.5.5,0,0,0,0-.16,1.07,1.07,0,0,0-.07-.19l-.17-.42a3.07,3.07,0,0,1-.6-.11,3.13,3.13,0,0,1-.42-.16.81.81,0,0,1-.23-.16.53.53,0,0,1-.1-.2,2,2,0,0,1,0-.4,2.36,2.36,0,0,1,0-.29c0-.07,0-.12,0-.17a.18.18,0,0,1,.06-.08.11.11,0,0,1,.08,0,.38.38,0,0,1,.18.07,3.22,3.22,0,0,0,.29.17,2.67,2.67,0,0,0,.41.17,1.69,1.69,0,0,0,.53.08,1.66,1.66,0,0,0,.33,0,1,1,0,0,0,.25-.12.62.62,0,0,0,.16-.2.67.67,0,0,0,.06-.28.5.5,0,0,0-.11-.32.82.82,0,0,0-.26-.22l-.38-.19A4,4,0,0,1,288,41a2.64,2.64,0,0,1-.44-.23,1.65,1.65,0,0,1-.37-.33,1.53,1.53,0,0,1-.27-.47,1.81,1.81,0,0,1-.1-.65,1.88,1.88,0,0,1,.13-.72,1.69,1.69,0,0,1,.4-.55,1.81,1.81,0,0,1,.62-.36,2.72,2.72,0,0,1,.83-.13,3.27,3.27,0,0,1,.45,0,2.23,2.23,0,0,1,.39.09l.3.12a1,1,0,0,1,.17.11.28.28,0,0,1,.07.09.2.2,0,0,1,0,.11.63.63,0,0,1,0,.16,1.55,1.55,0,0,1,0,.23,2.1,2.1,0,0,1,0,.27.63.63,0,0,1,0,.16s0,.07-.06.08a.08.08,0,0,1-.07,0,.35.35,0,0,1-.16-.06l-.26-.14a3.58,3.58,0,0,0-.36-.13,1.31,1.31,0,0,0-.46-.07,1,1,0,0,0-.33,0,.43.43,0,0,0-.22.12.46.46,0,0,0-.13.18.59.59,0,0,0,0,.23.5.5,0,0,0,.11.32,1,1,0,0,0,.27.22,1.76,1.76,0,0,0,.39.18l.43.19a2.64,2.64,0,0,1,.44.23,1.75,1.75,0,0,1,.39.33,1.6,1.6,0,0,1,.27.46,1.79,1.79,0,0,1,.11.64,2,2,0,0,1-.16.81,1.49,1.49,0,0,1-.45.6A1.83,1.83,0,0,1,289.22,43.51Z" transform="translate(-1 -10.44)"/><path class="cls-1" d="M295.94,38.25a1.19,1.19,0,0,1-.06.43c0,.09-.09.14-.15.14h-.58a.88.88,0,0,1,.18.33,1.58,1.58,0,0,1,.05.38,2.38,2.38,0,0,1-.14.84,1.68,1.68,0,0,1-.41.62,1.65,1.65,0,0,1-.64.38,2.47,2.47,0,0,1-.84.14,1.62,1.62,0,0,1-.44-.07.85.85,0,0,1-.33-.15.76.76,0,0,0-.12.19.64.64,0,0,0,0,.24.33.33,0,0,0,.14.29.63.63,0,0,0,.39.13l1.19,0a2.44,2.44,0,0,1,.74.13,1.5,1.5,0,0,1,.54.31,1.39,1.39,0,0,1,.34.49,1.67,1.67,0,0,1,.12.65,1.79,1.79,0,0,1-.16.76,1.62,1.62,0,0,1-.47.61,2.32,2.32,0,0,1-.8.41,3.44,3.44,0,0,1-1.12.16,4.6,4.6,0,0,1-1.06-.11,2.19,2.19,0,0,1-.72-.31,1.12,1.12,0,0,1-.41-.46,1.31,1.31,0,0,1-.13-.59,1.67,1.67,0,0,1,0-.39,1.43,1.43,0,0,1,.14-.34,1.4,1.4,0,0,1,.22-.32,2.76,2.76,0,0,1,.3-.29,1.09,1.09,0,0,1-.36-.38,1.07,1.07,0,0,1-.13-.53,1.38,1.38,0,0,1,.15-.65,1.83,1.83,0,0,1,.38-.53,1.44,1.44,0,0,1-.3-.51,2,2,0,0,1-.12-.74,2.26,2.26,0,0,1,.15-.85,1.74,1.74,0,0,1,.42-.63,1.83,1.83,0,0,1,.64-.4,2.39,2.39,0,0,1,.82-.13,3.15,3.15,0,0,1,.44,0l.39.08h1.55c.06,0,.11.05.15.14A1.21,1.21,0,0,1,295.94,38.25Zm-1.75-3a.21.21,0,0,1,.1-.18.71.71,0,0,1,.34-.06h.23l.15,0a.16.16,0,0,1,.07.07.29.29,0,0,1,0,.09,2.3,2.3,0,0,1-.1.73,1.36,1.36,0,0,1-.29.53,1.32,1.32,0,0,1-.49.33,2.22,2.22,0,0,1-.72.11,2.29,2.29,0,0,1-.73-.11,1.32,1.32,0,0,1-.49-.33,1.49,1.49,0,0,1-.28-.53,2.6,2.6,0,0,1-.09-.71A.2.2,0,0,1,292,35a1,1,0,0,1,.36,0h.23a.46.46,0,0,1,.14,0,.19.19,0,0,1,.08.07l0,.11a1.16,1.16,0,0,0,.05.29.63.63,0,0,0,.12.23.48.48,0,0,0,.2.14.84.84,0,0,0,.29,0,1.11,1.11,0,0,0,.28,0,.74.74,0,0,0,.21-.13.83.83,0,0,0,.14-.22A1.4,1.4,0,0,0,294.19,35.23Zm.3,8.62a.5.5,0,0,0-.19-.42,1,1,0,0,0-.55-.16l-1,0a1.51,1.51,0,0,0-.22.22,1.28,1.28,0,0,0-.14.21.67.67,0,0,0-.07.18,1.28,1.28,0,0,0,0,.19.49.49,0,0,0,.27.46,1.56,1.56,0,0,0,.78.16,1.66,1.66,0,0,0,.53-.07,1,1,0,0,0,.34-.18.75.75,0,0,0,.19-.26A1,1,0,0,0,294.49,43.85Zm-.32-4.32a.94.94,0,0,0-.22-.68.77.77,0,0,0-.62-.25.78.78,0,0,0-.35.08.75.75,0,0,0-.26.21,1.05,1.05,0,0,0-.15.3,1.42,1.42,0,0,0-.05.36.94.94,0,0,0,.22.65.92.92,0,0,0,1,.17.71.71,0,0,0,.25-.2,1,1,0,0,0,.16-.29A1.41,1.41,0,0,0,294.17,39.53Z" transform="translate(-1 -10.44)"/><path class="cls-1" d="M301.48,43.28a.2.2,0,0,1,0,.11.21.21,0,0,1-.1.08.6.6,0,0,1-.18,0l-.28,0-.29,0a.6.6,0,0,1-.18,0,.24.24,0,0,1-.09-.08.2.2,0,0,1,0-.11v-.62a3.19,3.19,0,0,1-.82.73,1.73,1.73,0,0,1-.87.24,1.77,1.77,0,0,1-.84-.18,1.5,1.5,0,0,1-.56-.5,2.08,2.08,0,0,1-.3-.73,5,5,0,0,1-.09-1V37.87a.2.2,0,0,1,0-.11.23.23,0,0,1,.11-.07.9.9,0,0,1,.22,0h.66a.81.81,0,0,1,.21,0,.23.23,0,0,1,.11.07.21.21,0,0,1,0,.11v3.06a3.65,3.65,0,0,0,0,.65,1.5,1.5,0,0,0,.15.38.77.77,0,0,0,.26.25.75.75,0,0,0,.37.09.83.83,0,0,0,.52-.21,3.21,3.21,0,0,0,.57-.62v-3.6a.2.2,0,0,1,0-.11.23.23,0,0,1,.11-.07.81.81,0,0,1,.21,0h.67l.2,0a.19.19,0,0,1,.11.07.15.15,0,0,1,0,.11Z" transform="translate(-1 -10.44)"/><path class="cls-1" d="M304.24,43.28a.2.2,0,0,1,0,.11.28.28,0,0,1-.12.08.87.87,0,0,1-.21,0l-.33,0-.33,0a.87.87,0,0,1-.21,0,.23.23,0,0,1-.12-.08.2.2,0,0,1,0-.11v-8a.2.2,0,0,1,0-.11.23.23,0,0,1,.12-.08.81.81,0,0,1,.21,0l.33,0,.33,0a.81.81,0,0,1,.21,0,.28.28,0,0,1,.12.08.2.2,0,0,1,0,.11Z" transform="translate(-1 -10.44)"/><path class="cls-1" d="M307,43.28a.2.2,0,0,1,0,.11.28.28,0,0,1-.12.08.87.87,0,0,1-.21,0l-.33,0-.33,0a.87.87,0,0,1-.21,0,.28.28,0,0,1-.12-.08.2.2,0,0,1,0-.11v-8a.2.2,0,0,1,0-.11.28.28,0,0,1,.12-.08.81.81,0,0,1,.21,0l.33,0,.33,0a.81.81,0,0,1,.21,0,.28.28,0,0,1,.12.08.2.2,0,0,1,0,.11Z" transform="translate(-1 -10.44)"/><path class="cls-1" d="M313,43.28a.2.2,0,0,1,0,.11.24.24,0,0,1-.09.08l-.18,0-.29,0-.29,0-.18,0a.24.24,0,0,1-.09-.08.2.2,0,0,1,0-.11v-.62a3.19,3.19,0,0,1-.82.73,1.73,1.73,0,0,1-.87.24,1.8,1.8,0,0,1-.84-.18,1.47,1.47,0,0,1-.55-.5,2.08,2.08,0,0,1-.3-.73,5,5,0,0,1-.09-1V37.87a.14.14,0,0,1,0-.11s.05,0,.1-.07a1,1,0,0,1,.22,0h.66a.81.81,0,0,1,.21,0,.27.27,0,0,1,.12.07.2.2,0,0,1,0,.11v3.06a2.79,2.79,0,0,0,.05.65,1,1,0,0,0,.15.38.67.67,0,0,0,.25.25.75.75,0,0,0,.37.09.88.88,0,0,0,.53-.21,3.56,3.56,0,0,0,.56-.62v-3.6a.2.2,0,0,1,0-.11.23.23,0,0,1,.11-.07.81.81,0,0,1,.21,0h.67a.81.81,0,0,1,.21,0,.3.3,0,0,1,.11.07.2.2,0,0,1,0,.11Z" transform="translate(-1 -10.44)"/><path class="cls-1" d="M319,45.43a.2.2,0,0,1,0,.11.19.19,0,0,1-.11.08.76.76,0,0,1-.21.06H318a.89.89,0,0,1-.21-.06.19.19,0,0,1-.11-.08.2.2,0,0,1,0-.11V42.86c-.13.13-.26.25-.38.35a1.94,1.94,0,0,1-.37.24,1.82,1.82,0,0,1-.39.14,1.78,1.78,0,0,1-.41,0,1.65,1.65,0,0,1-.91-.24,1.76,1.76,0,0,1-.62-.65,3.13,3.13,0,0,1-.35-1,6,6,0,0,1-.11-1.14,5.16,5.16,0,0,1,.15-1.3,3,3,0,0,1,.41-1,1.82,1.82,0,0,1,1.6-.85,1.74,1.74,0,0,1,.39,0,1.19,1.19,0,0,1,.37.16,2.26,2.26,0,0,1,.38.29,4.55,4.55,0,0,1,.44.44v-.59a.21.21,0,0,1,0-.11.22.22,0,0,1,.09-.07l.18,0h.56a.56.56,0,0,1,.18,0,.22.22,0,0,1,.09.07.2.2,0,0,1,0,.11Zm-1.37-5.76a3.08,3.08,0,0,0-.56-.64.91.91,0,0,0-.57-.21A.78.78,0,0,0,316,39a1,1,0,0,0-.31.4,2.3,2.3,0,0,0-.18.56,3.21,3.21,0,0,0-.06.63,4.89,4.89,0,0,0,.05.66,2.59,2.59,0,0,0,.16.57,1.28,1.28,0,0,0,.3.41.73.73,0,0,0,.47.15.87.87,0,0,0,.28-.05.91.91,0,0,0,.27-.15,1.79,1.79,0,0,0,.29-.27,3.93,3.93,0,0,0,.32-.41Z" transform="translate(-1 -10.44)"/></g><g class="cls-2"><g class="cls-2"><path class="cls-1" d="M277.58,56.23a2.66,2.66,0,0,1,.08.35.23.23,0,0,1-.05.19.34.34,0,0,1-.21.08h-.86a1.07,1.07,0,0,1-.23,0,.23.23,0,0,1-.12-.08.32.32,0,0,1-.05-.13L275.66,55H273l-.45,1.54a.46.46,0,0,1-.05.14.23.23,0,0,1-.12.09.55.55,0,0,1-.22.05h-.38a2.24,2.24,0,0,1-.4,0,.28.28,0,0,1-.19-.08.26.26,0,0,1,0-.2,2.26,2.26,0,0,1,.08-.34l2.18-7a.91.91,0,0,1,.08-.17.39.39,0,0,1,.14-.1,1.3,1.3,0,0,1,.26,0h1l.3,0a.3.3,0,0,1,.15.11.51.51,0,0,1,.08.18Zm-3.25-5.76h0l-1,3.34h2Z" transform="translate(-1 -10.44)"/></g><g class="cls-2"><path class="cls-1" d="M282.75,51.58a1.16,1.16,0,0,1-.06.43c0,.09-.09.14-.15.14H282a1.06,1.06,0,0,1,.18.33,1.67,1.67,0,0,1,.05.39,2.47,2.47,0,0,1-.14.84,1.92,1.92,0,0,1-.41.62,1.79,1.79,0,0,1-.64.38,2.47,2.47,0,0,1-.84.13,1.61,1.61,0,0,1-.44-.06,1.3,1.3,0,0,1-.33-.15.52.52,0,0,0-.12.19.47.47,0,0,0,0,.24.34.34,0,0,0,.14.29.69.69,0,0,0,.39.12l1.19.05a2.79,2.79,0,0,1,.74.13,1.52,1.52,0,0,1,.54.32,1.31,1.31,0,0,1,.34.49,1.62,1.62,0,0,1,.12.64,1.79,1.79,0,0,1-.16.76,1.65,1.65,0,0,1-.47.62,2.51,2.51,0,0,1-.8.41,3.75,3.75,0,0,1-1.12.15,4.6,4.6,0,0,1-1.06-.11,2,2,0,0,1-.72-.3,1.14,1.14,0,0,1-.41-.47,1.28,1.28,0,0,1-.13-.59,1.58,1.58,0,0,1,0-.38,1.51,1.51,0,0,1,.14-.35,1.66,1.66,0,0,1,.22-.32,2.76,2.76,0,0,1,.3-.29.94.94,0,0,1-.36-.38,1,1,0,0,1-.13-.52,1.45,1.45,0,0,1,.15-.66,2.15,2.15,0,0,1,.38-.53,1.62,1.62,0,0,1-.31-.51,2.22,2.22,0,0,1-.11-.74,2.3,2.3,0,0,1,.15-.85,1.93,1.93,0,0,1,.42-.63,1.81,1.81,0,0,1,.64-.39,2.39,2.39,0,0,1,.82-.14,3.15,3.15,0,0,1,.44,0A2.23,2.23,0,0,1,281,51h1.55c.06,0,.11,0,.15.13A1.21,1.21,0,0,1,282.75,51.58Zm-1.45,5.6a.48.48,0,0,0-.2-.42,1,1,0,0,0-.54-.15l-1,0a1.14,1.14,0,0,0-.22.22,1.86,1.86,0,0,0-.14.2.89.89,0,0,0-.07.19,1.15,1.15,0,0,0,0,.19.51.51,0,0,0,.27.46,1.68,1.68,0,0,0,.78.16,2,2,0,0,0,.53-.07,1,1,0,0,0,.34-.19.61.61,0,0,0,.19-.26A.94.94,0,0,0,281.3,57.18ZM281,52.86a1,1,0,0,0-.22-.68.8.8,0,0,0-.62-.24.78.78,0,0,0-.35.07.67.67,0,0,0-.26.21.85.85,0,0,0-.15.3,1.5,1.5,0,0,0-.05.37,1,1,0,0,0,.22.65.79.79,0,0,0,.61.24,1,1,0,0,0,.36-.07.64.64,0,0,0,.25-.21.9.9,0,0,0,.16-.29A1.34,1.34,0,0,0,281,52.86Z" transform="translate(-1 -10.44)"/><path class="cls-1" d="M288.05,53.75a.62.62,0,0,1-.12.42.36.36,0,0,1-.31.13h-3a2.47,2.47,0,0,0,.08.63,1.34,1.34,0,0,0,.23.48,1.08,1.08,0,0,0,.42.3,1.59,1.59,0,0,0,.61.1,2.93,2.93,0,0,0,.63-.06,3.72,3.72,0,0,0,.48-.12l.33-.13a.52.52,0,0,1,.21-.06l.08,0a.28.28,0,0,1,.06.08s0,.09,0,.15,0,.15,0,.26,0,.16,0,.22a.63.63,0,0,1,0,.16.21.21,0,0,1,0,.12.16.16,0,0,1-.06.08.5.5,0,0,1-.19.12,2.16,2.16,0,0,1-.41.14,5.1,5.1,0,0,1-1.24.18,3.32,3.32,0,0,1-1.14-.19,1.92,1.92,0,0,1-.81-.55,2.3,2.3,0,0,1-.49-.93,5.17,5.17,0,0,1,0-2.63,2.83,2.83,0,0,1,.5-1,2,2,0,0,1,.78-.62,2.51,2.51,0,0,1,1-.21,2.4,2.4,0,0,1,1.05.2,1.86,1.86,0,0,1,.71.55,2.2,2.2,0,0,1,.41.84,4,4,0,0,1,.14,1.06Zm-1.34-.43a1.74,1.74,0,0,0-.23-1,.86.86,0,0,0-.77-.37,1,1,0,0,0-.46.11,1,1,0,0,0-.32.29,1.48,1.48,0,0,0-.2.44,3.05,3.05,0,0,0-.08.54Z" transform="translate(-1 -10.44)"/><path class="cls-1" d="M293.84,56.62a.17.17,0,0,1,0,.11.2.2,0,0,1-.1.07,1,1,0,0,1-.22.05h-.66a.81.81,0,0,1-.21-.05.23.23,0,0,1-.11-.07.25.25,0,0,1,0-.11V53.53a2.61,2.61,0,0,0,0-.62,1.13,1.13,0,0,0-.15-.39.64.64,0,0,0-.25-.24.75.75,0,0,0-.37-.09.88.88,0,0,0-.53.21,2.9,2.9,0,0,0-.55.62v3.6a.25.25,0,0,1,0,.11.23.23,0,0,1-.11.07.81.81,0,0,1-.21.05h-.67l-.21-.05a.23.23,0,0,1-.11-.07.23.23,0,0,1,0-.11V51.2a.17.17,0,0,1,0-.1.18.18,0,0,1,.09-.08l.19,0,.28,0,.29,0,.18,0a.24.24,0,0,1,.09.08.3.3,0,0,1,0,.1v.63a3.22,3.22,0,0,1,.83-.73,1.73,1.73,0,0,1,.87-.24,1.8,1.8,0,0,1,.84.18,1.53,1.53,0,0,1,.55.49,2.13,2.13,0,0,1,.3.74,4.17,4.17,0,0,1,.1,1Z" transform="translate(-1 -10.44)"/><path class="cls-1" d="M298,56.08a2.07,2.07,0,0,1,0,.41.34.34,0,0,1-.08.2.4.4,0,0,1-.14.11l-.23.08-.28,0-.3,0a1.92,1.92,0,0,1-.71-.12,1.19,1.19,0,0,1-.5-.35,1.51,1.51,0,0,1-.29-.61,3.6,3.6,0,0,1-.09-.86V52.24h-.59q-.11,0-.15-.15a1.29,1.29,0,0,1-.06-.47c0-.12,0-.22,0-.3a.64.64,0,0,1,.05-.19.19.19,0,0,1,.06-.1.17.17,0,0,1,.1,0h.58V49.79a.2.2,0,0,1,0-.11.24.24,0,0,1,.11-.08.81.81,0,0,1,.21-.05l.33,0,.34,0a.81.81,0,0,1,.21.05.24.24,0,0,1,.11.08.2.2,0,0,1,0,.11V51h1.06a.17.17,0,0,1,.1,0,.2.2,0,0,1,.07.1.69.69,0,0,1,0,.19,2.63,2.63,0,0,1,0,.3,1.65,1.65,0,0,1-.05.47c0,.1-.09.15-.16.15h-1.07v2.54a1.26,1.26,0,0,0,.13.66.47.47,0,0,0,.45.23.58.58,0,0,0,.19,0l.16,0,.11-.05a.15.15,0,0,1,.09,0,.07.07,0,0,1,.06,0,.12.12,0,0,1,.05.08,1.64,1.64,0,0,1,0,.18A2.1,2.1,0,0,1,298,56.08Z" transform="translate(-1 -10.44)"/><path class="cls-1" d="M300.35,56.62a.25.25,0,0,1,0,.11.23.23,0,0,1-.11.07.81.81,0,0,1-.21.05h-.67l-.21-.05a.23.23,0,0,1-.11-.07.23.23,0,0,1,0-.11v-8a.2.2,0,0,1,0-.11s.06-.06.11-.09l.21,0,.34,0,.33,0,.21,0c.05,0,.09.05.11.09a.21.21,0,0,1,0,.11Z" transform="translate(-1 -10.44)"/><path class="cls-1" d="M303.2,49.37A.94.94,0,0,1,303,50a.85.85,0,0,1-.63.17.81.81,0,0,1-.62-.17.85.85,0,0,1-.17-.61.94.94,0,0,1,.17-.64.85.85,0,0,1,.63-.18.9.9,0,0,1,.63.17A.92.92,0,0,1,303.2,49.37Zm-.1,7.25a.17.17,0,0,1,0,.11.23.23,0,0,1-.11.07.81.81,0,0,1-.21.05h-.67l-.21-.05a.23.23,0,0,1-.11-.07.23.23,0,0,1,0-.11v-5.4a.2.2,0,0,1,0-.11.24.24,0,0,1,.11-.08l.21-.05.34,0,.33,0A.81.81,0,0,1,303,51a.24.24,0,0,1,.11.08.15.15,0,0,1,0,.11Z" transform="translate(-1 -10.44)"/><path class="cls-1" d="M307.3,56.83l-.59,1.91a.36.36,0,0,1-.27.22,2.13,2.13,0,0,1-.64.07l-.35,0a.66.66,0,0,1-.2-.07.15.15,0,0,1-.07-.12.67.67,0,0,1,0-.18l.65-1.81a.46.46,0,0,1-.12-.12.51.51,0,0,1-.09-.16l-1.68-5a1,1,0,0,1-.07-.32.23.23,0,0,1,.07-.18.35.35,0,0,1,.22-.08,2.22,2.22,0,0,1,.41,0H305a.65.65,0,0,1,.22.05.2.2,0,0,1,.11.11,1.17,1.17,0,0,1,.08.21L306.53,55h0l1-3.7a.41.41,0,0,1,.09-.21.3.3,0,0,1,.17-.07,2,2,0,0,1,.42,0,2.06,2.06,0,0,1,.39,0,.35.35,0,0,1,.23.09.22.22,0,0,1,.08.18,1,1,0,0,1-.05.26Z" transform="translate(-1 -10.44)"/><path class="cls-1" d="M311.26,49.37a.94.94,0,0,1-.17.64.88.88,0,0,1-.63.17.85.85,0,0,1-.63-.17.86.86,0,0,1-.16-.61.94.94,0,0,1,.17-.64.85.85,0,0,1,.63-.18.87.87,0,0,1,.62.17A.92.92,0,0,1,311.26,49.37Zm-.11,7.25a.23.23,0,0,1,0,.11.23.23,0,0,1-.11.07.81.81,0,0,1-.21.05h-.67a.81.81,0,0,1-.21-.05.23.23,0,0,1-.11-.07.25.25,0,0,1,0-.11v-5.4a.21.21,0,0,1,0-.11.24.24,0,0,1,.11-.08.81.81,0,0,1,.21-.05l.33,0,.34,0A.81.81,0,0,1,311,51a.24.24,0,0,1,.11.08.2.2,0,0,1,0,.11Z" transform="translate(-1 -10.44)"/></g></g><path class="cls-1" d="M249.07,19.39A1.62,1.62,0,1,1,247.45,21a1.61,1.61,0,0,1,1.62-1.61h0M215.56,39a1.62,1.62,0,1,1-1.62,1.61A1.61,1.61,0,0,1,215.56,39m33.51,19.45A1.62,1.62,0,1,1,247.45,60a1.61,1.61,0,0,1,1.62-1.61h0m-20.95,0a1.62,1.62,0,0,1,0,3.23,1.62,1.62,0,1,1,0-3.23h0m27.51-32.17-5.94-1.77a6.9,6.9,0,0,1,1.39,3.12l3.8,1.14a3,3,0,0,1,2.06,3.78v0l-2.34,7.85a3,3,0,0,1-2.93,2.17A2.93,2.93,0,0,1,249,41l-3-5.52a7.2,7.2,0,0,1-1.79.23l-1.07,0,3.54,6.55a5.55,5.55,0,0,0,5,3,5.63,5.63,0,0,0,5.43-4l2.34-7.85a5.66,5.66,0,0,0-3.8-7m-7.32-1.42-5.62-6a5.64,5.64,0,0,0-8-.23l-4.5,4.25a5.49,5.49,0,0,1,.91-.07,6.88,6.88,0,0,1,2.46.46l2.91-2.73a3,3,0,0,1,4.31.13l5.61,5.94a3,3,0,0,1-2.2,5.13l-6.38-.18a6.86,6.86,0,0,1-.78,1.85l-.44.72,7.44.22h.18a5.64,5.64,0,0,0,4.09-9.53m9.76,17.3,1.43,6a5.65,5.65,0,0,1-4.19,6.8l-8,1.89A5.52,5.52,0,0,1,246,57a5.65,5.65,0,0,1-4.77-8.62l3.9-6.34.39.75a7.06,7.06,0,0,0,1.21,1.62l-3.3,5.34a3,3,0,0,0-.07,3.06,3,3,0,0,0,3.36,1.5l8-1.89a3.05,3.05,0,0,0,2.25-3.67l-.92-3.9a6.88,6.88,0,0,0,2-2.76M219,39l-1.43-6a5.64,5.64,0,0,1,4.22-6.78l8-1.89A5.66,5.66,0,0,1,236,27.05a5.57,5.57,0,0,1-.13,5.71L232,39.1l-.39-.75a7.06,7.06,0,0,0-1.21-1.62l3.3-5.34a3,3,0,0,0,.07-3.06,3,3,0,0,0-2.62-1.56,3.19,3.19,0,0,0-.75.08l-8,1.89a3,3,0,0,0-2.25,3.67l.92,3.9a6.77,6.77,0,0,0-2,2.72m7,14.53-3.82-1.13a3,3,0,0,1-2-3.78h0l2.34-7.85a3,3,0,0,1,2.93-2.17,2.94,2.94,0,0,1,2.67,1.6l3,5.52a7.79,7.79,0,0,1,1.79-.24l1.06,0L230.46,39a5.54,5.54,0,0,0-5-3,5.62,5.62,0,0,0-5.42,4l-2.34,7.85a5.64,5.64,0,0,0,3.79,7l5.94,1.81a6.84,6.84,0,0,1-1.39-3.12M246,58.36a7,7,0,0,1-2.43-.47l-2.9,2.73a3.12,3.12,0,0,1-4.29-.12l-5.63-6a2.29,2.29,0,0,1-.58-2.84c.39-.89,1.31-1.39,2.88-1.39h0l6.28-.27a7.8,7.8,0,0,1,.78-2.08l.44-.83-7.45-.27-.17,0a5.64,5.64,0,0,0-4.1,9.5l5.63,6a5.65,5.65,0,0,0,8,.23l4.5-4.23a7.75,7.75,0,0,1-1,.07m-7-37.61c2.06,4.89,1.8,4.52,0,9.81-2.06-4.76-1.87-4.88,0-9.81m16.91,10.88c-3.21,4.22-3,3.82-8.49,4.91,3.09-4.16,3.29-4.07,8.49-4.91M238.6,60.44c2.05-4.88,1.8-4.52,0-9.8-2.06,4.75-1.88,4.88,0,9.8m17.2-9.8c-3.08-4.32-2.9-3.9-8.35-5.15,3,4.24,3.18,4.16,8.35,5.15M221.35,30.12c3.2,4.22,3,3.82,8.49,4.9-3.09-4.15-3.29-4.06-8.49-4.9m0,20.25c3.2-4.22,3-3.82,8.49-4.91-3.09,4.16-3.29,4.07-8.49,4.91m6.77-31a1.62,1.62,0,0,1,0,3.23,1.62,1.62,0,1,1,0-3.23h0" transform="translate(-1 -10.44)"/><path class="cls-1" d="M261.62,39A1.62,1.62,0,1,1,260,40.59,1.61,1.61,0,0,1,261.62,39" transform="translate(-1 -10.44)"/><path class="cls-1" d="M242.32,39.94c-.12,0-.53-.27-.32-.44s.07-.28.18-.32.12-.22.15-.48l-.06,0a1.42,1.42,0,0,0-.14-.64.62.62,0,0,0-1.12.36v.26c0,.05,0,0,0,0h0a1.29,1.29,0,0,0,.07.43c.06.09,0,0,.11.07s0,.14.07.2a1,1,0,0,0,.14.15c0,.19-.14.25-.26.34.06.07.25.13.35.31a1.45,1.45,0,0,1,.18.49h1.77c0-.55-.61-.55-1-.75m-2.66,5.26a4.67,4.67,0,0,0,1.26-.42,4.05,4.05,0,0,0,1-.71,7.2,7.2,0,0,0-1.09-.6s-.46.78-.57.91ZM235.78,44a.16.16,0,0,0,.06.08,4.5,4.5,0,0,0,2.37,1.16A2,2,0,0,0,238,45a9.44,9.44,0,0,1-1-1.38,1.71,1.71,0,0,0-.13-.23,7.27,7.27,0,0,0-1.17.62m3.31,1.27V43a4,4,0,0,1,.76.11c.24.06.45.13.68.2a4.29,4.29,0,0,1-.31.55c-.16.24-.33.49-.52.73l-.1.12-.39.46s-.05.08-.12.08M238.73,43v2.26a.88.88,0,0,1-.21-.22l-.2-.23-.09-.13a8.66,8.66,0,0,1-.95-1.43,4.42,4.42,0,0,1,1.45-.25m-1.62-.08c.13,0,.47-.14.78-.19s.54,0,.85-.09V41h-2.12a5.22,5.22,0,0,0,.32,1.52,4.22,4.22,0,0,1,.18.45m-1.56-4.26-.06,0a1.2,1.2,0,0,0,.07.42c.05.09,0,0,.11.07s0,.14.07.21.12.1.14.15c.18.41-1.35.44-1.42,1.14h1.8c.08-.21.1-.53.42-.72a.28.28,0,0,0,.11-.08c-.08,0-.29-.16-.28-.3s.08-.09.13-.16,0-.2.11-.25,0,0,.05,0,.07-.2.08-.27a.32.32,0,0,0,0-.1.15.15,0,0,0,0-.1s0,0,0-.08-.06-.64-.31-.75c-.62-.29-1,.24-1,.81m3.51,4a5.94,5.94,0,0,1,1.61.35h0l0,0a5.39,5.39,0,0,0,.52-2h-2.15Zm1.95.49a1.45,1.45,0,0,1,.11-.26c.1-.25.19-.5.27-.76s.09-.37.13-.55,0-.44.07-.63h1.78a3.2,3.2,0,0,1-.12.87,4.49,4.49,0,0,1-1,1.91l-.06.06-.15-.09-.43-.26c-.2-.11-.4-.2-.61-.29m-5.49.6a2,2,0,0,1-.23-.28,4.34,4.34,0,0,1-.78-1.67,3.54,3.54,0,0,1-.11-.85h1.86a5.72,5.72,0,0,0,.35,1.63c.07.15.13.3.19.46l-.35.16-.32.17ZM238.07,38a1.86,1.86,0,0,1,.17-.84.86.86,0,0,1,1.21-.17.55.55,0,0,1,.17.17,1.86,1.86,0,0,1,.17.84l.09,0a1.57,1.57,0,0,1,0,.43.36.36,0,0,1-.07.17c-.06.09-.06,0-.13.06s0,.27-.16.39-.23.1-.06.33c.37.49,1.52.53,1.71.91a.89.89,0,0,1,.12.39H236.6a.67.67,0,0,1,.44-.63c.29-.14,1.15-.32,1.41-.68s0-.29-.06-.33-.1-.26-.15-.39-.1,0-.15-.08A1.33,1.33,0,0,1,238,38Z" transform="translate(-1 -10.44)"/><g class="cls-2"><g class="cls-2"><path class="cls-1" d="M68.46,30.09a2.44,2.44,0,0,1,.08.32.21.21,0,0,1,0,.18.31.31,0,0,1-.2.07l-.39,0h-.4a.87.87,0,0,1-.22,0,.18.18,0,0,1-.11-.07.58.58,0,0,1-.05-.11L66.69,29H64.23l-.41,1.42a.52.52,0,0,1-.06.13.16.16,0,0,1-.1.08.81.81,0,0,1-.21.05H63.1l-.37,0a.3.3,0,0,1-.18-.08.26.26,0,0,1,0-.18,1.89,1.89,0,0,1,.07-.32l2-6.45a1.07,1.07,0,0,1,.07-.15.25.25,0,0,1,.13-.09.76.76,0,0,1,.25,0H66a.85.85,0,0,1,.27,0,.27.27,0,0,1,.15.09,1,1,0,0,1,.07.17Zm-3-5.33h0l-.92,3.09h1.85Z" transform="translate(-1 -10.44)"/><path class="cls-1" d="M72.66,30.06a2,2,0,0,1,0,.28.78.78,0,0,1,0,.19.15.15,0,0,1-.06.09l-.09,0h-3a.24.24,0,0,1-.21-.1.57.57,0,0,1-.08-.33V30c0-.07,0-.13,0-.18l0-.16.06-.15.1-.18,1.69-2.9H69.5c-.06,0-.11,0-.15-.13a1.12,1.12,0,0,1-.06-.43,2.35,2.35,0,0,1,0-.28.61.61,0,0,1,0-.17.22.22,0,0,1,.07-.09.12.12,0,0,1,.09,0h2.76l.12,0a.12.12,0,0,1,.08.06.34.34,0,0,1,.06.12,1.15,1.15,0,0,1,0,.2v.27a1.15,1.15,0,0,1,0,.2.47.47,0,0,1,0,.17.64.64,0,0,1-.06.16l-.08.16-1.68,2.9h1.78l.08,0a.19.19,0,0,1,.07.08.69.69,0,0,1,0,.18A1.87,1.87,0,0,1,72.66,30.06Z" transform="translate(-1 -10.44)"/><path class="cls-1" d="M73.59,28.09a.64.64,0,0,1,.1-.38.37.37,0,0,1,.29-.12h2.75a2,2,0,0,0-.07-.58,1.06,1.06,0,0,0-.22-.45,1,1,0,0,0-.38-.28,1.62,1.62,0,0,0-.57-.09,3.3,3.3,0,0,0-.58,0l-.44.12-.31.12a.59.59,0,0,1-.19.05l-.08,0a.13.13,0,0,1,0-.07,1.06,1.06,0,0,1,0-.14c0-.06,0-.14,0-.24a1.34,1.34,0,0,1,0-.21c0-.05,0-.1,0-.15l0-.1.06-.08a.56.56,0,0,1,.18-.11,2.55,2.55,0,0,1,.37-.13,5.2,5.2,0,0,1,.52-.11,4.23,4.23,0,0,1,.63-.05,3.14,3.14,0,0,1,1.06.17,1.79,1.79,0,0,1,.75.51,2.26,2.26,0,0,1,.46.87A4.4,4.4,0,0,1,78,27.89a4.5,4.5,0,0,1-.15,1.21,2.78,2.78,0,0,1-.46.91,2.22,2.22,0,0,1-.72.57,2.33,2.33,0,0,1-1,.19,2.37,2.37,0,0,1-1-.18,1.8,1.8,0,0,1-.66-.52,2.18,2.18,0,0,1-.38-.78,3.68,3.68,0,0,1-.12-1Zm1.24.41a1.59,1.59,0,0,0,.21.93.92.92,0,0,0,1.13.24,1,1,0,0,0,.3-.27,1.55,1.55,0,0,0,.19-.41,2.52,2.52,0,0,0,.07-.49Z" transform="translate(-1 -10.44)"/></g><g class="cls-2"><path class="cls-1" d="M82.16,25.91a3.22,3.22,0,0,1,0,.33.56.56,0,0,1,0,.2.19.19,0,0,1-.05.1.11.11,0,0,1-.08,0l-.09,0-.12,0-.14,0a.41.41,0,0,0-.16,0,.57.57,0,0,0-.22,0l-.22.15a2.28,2.28,0,0,0-.23.27,2.55,2.55,0,0,0-.27.42v3.12a.17.17,0,0,1,0,.1.26.26,0,0,1-.1.07.88.88,0,0,1-.2,0l-.31,0-.31,0-.19,0a.2.2,0,0,1-.1-.07.13.13,0,0,1,0-.1v-5a.17.17,0,0,1,0-.1.22.22,0,0,1,.09-.07.61.61,0,0,1,.17,0h.53a.46.46,0,0,1,.16,0,.22.22,0,0,1,.09.07.3.3,0,0,1,0,.1v.62a3.93,3.93,0,0,1,.34-.46,1.61,1.61,0,0,1,.3-.29.85.85,0,0,1,.28-.15.9.9,0,0,1,.28,0h.14a.41.41,0,0,1,.16,0l.14,0,.09.06a.09.09,0,0,1,0,.06.2.2,0,0,1,0,.09.74.74,0,0,1,0,.18Z" transform="translate(-1 -10.44)"/></g><g class="cls-2"><path class="cls-1" d="M87.58,27.88a4.88,4.88,0,0,1-.14,1.2,2.6,2.6,0,0,1-.38.91,1.64,1.64,0,0,1-1.43.78,1.42,1.42,0,0,1-.42-.05,1.26,1.26,0,0,1-.38-.15,2.11,2.11,0,0,1-.36-.27,4.74,4.74,0,0,1-.35-.39v.54a.2.2,0,0,1,0,.11.35.35,0,0,1-.09.07.61.61,0,0,1-.17,0h-.52l-.17,0a.35.35,0,0,1-.09-.07.36.36,0,0,1,0-.11V23.06a.19.19,0,0,1,0-.1.2.2,0,0,1,.1-.07l.2-.05.31,0,.31,0a.74.74,0,0,1,.19.05.2.2,0,0,1,.1.07.14.14,0,0,1,0,.1v2.77a2.54,2.54,0,0,1,.34-.32,1.63,1.63,0,0,1,.34-.22,1.74,1.74,0,0,1,.36-.13,1.58,1.58,0,0,1,.38,0,1.51,1.51,0,0,1,.85.22,1.64,1.64,0,0,1,.57.6,2.55,2.55,0,0,1,.32.88A5.22,5.22,0,0,1,87.58,27.88Zm-1.33.1a4.21,4.21,0,0,0,0-.62,2.05,2.05,0,0,0-.15-.53,1,1,0,0,0-.27-.36.64.64,0,0,0-.43-.14.69.69,0,0,0-.25,0,.86.86,0,0,0-.25.13,2.05,2.05,0,0,0-.27.25,3.42,3.42,0,0,0-.28.38v1.66a2.76,2.76,0,0,0,.51.58.8.8,0,0,0,.51.2.64.64,0,0,0,.42-.14,1.09,1.09,0,0,0,.29-.37,1.91,1.91,0,0,0,.16-.51A2.75,2.75,0,0,0,86.25,28Z" transform="translate(-1 -10.44)"/></g><g class="cls-2"><path class="cls-1" d="M92.6,30.47a.17.17,0,0,1,0,.12.48.48,0,0,1-.16.07l-.33,0-.33,0a.26.26,0,0,1-.14-.07.17.17,0,0,1,0-.12v-.4a2.09,2.09,0,0,1-.63.52,1.73,1.73,0,0,1-.79.18,2,2,0,0,1-.66-.1,1.4,1.4,0,0,1-.53-.31,1.52,1.52,0,0,1-.34-.51,1.92,1.92,0,0,1-.12-.71,1.67,1.67,0,0,1,.16-.76,1.3,1.3,0,0,1,.46-.53,2,2,0,0,1,.76-.31,4.71,4.71,0,0,1,1.06-.1h.44v-.31a1.64,1.64,0,0,0,0-.41.7.7,0,0,0-.14-.3.62.62,0,0,0-.26-.17,1.22,1.22,0,0,0-.41-.06,2,2,0,0,0-.57.08,2.24,2.24,0,0,0-.44.18l-.32.17a.51.51,0,0,1-.21.08.13.13,0,0,1-.1,0,.3.3,0,0,1-.07-.11.78.78,0,0,1,0-.18,2.21,2.21,0,0,1,0-.51.5.5,0,0,1,.1-.19,1.25,1.25,0,0,1,.25-.18,4.14,4.14,0,0,1,.41-.18l.52-.14a3.68,3.68,0,0,1,.58-.05,3,3,0,0,1,.91.12,1.4,1.4,0,0,1,.62.35,1.36,1.36,0,0,1,.35.61,3,3,0,0,1,.12.9Zm-1.25-2.15h-.49a2.65,2.65,0,0,0-.53.05,1,1,0,0,0-.35.16.52.52,0,0,0-.2.24.84.84,0,0,0-.06.33.62.62,0,0,0,.67.67.89.89,0,0,0,.5-.15,2.32,2.32,0,0,0,.46-.44Z" transform="translate(-1 -10.44)"/></g><g class="cls-2"><path class="cls-1" d="M96.57,30.64,96,32.42a.33.33,0,0,1-.25.2,2.17,2.17,0,0,1-.59.06,1.42,1.42,0,0,1-.32,0,.38.38,0,0,1-.19-.06.14.14,0,0,1-.06-.11.28.28,0,0,1,0-.17l.6-1.68a.35.35,0,0,1-.12-.1,1.09,1.09,0,0,1-.08-.15l-1.55-4.61a1.22,1.22,0,0,1-.07-.3.21.21,0,0,1,.06-.16.34.34,0,0,1,.21-.08,2.06,2.06,0,0,1,.38,0h.35a.43.43,0,0,1,.19.05.18.18,0,0,1,.11.1,1.11,1.11,0,0,1,.07.2l1.06,3.35h0l1-3.42a.43.43,0,0,1,.08-.19.27.27,0,0,1,.16-.07,1.85,1.85,0,0,1,.39,0,1.94,1.94,0,0,1,.36,0,.34.34,0,0,1,.21.08.21.21,0,0,1,.07.17.75.75,0,0,1,0,.24Z" transform="translate(-1 -10.44)"/></g><g class="cls-2"><path class="cls-1" d="M102.38,29.65c0,.1,0,.18,0,.25s0,.12,0,.16a.53.53,0,0,1,0,.11.33.33,0,0,1-.08.11,1.11,1.11,0,0,1-.21.16,1.68,1.68,0,0,1-.33.16,2.45,2.45,0,0,1-.41.12,2.3,2.3,0,0,1-.45.05,2.27,2.27,0,0,1-.93-.18,1.82,1.82,0,0,1-.67-.53,2.45,2.45,0,0,1-.41-.86A4.1,4.1,0,0,1,98.69,28a4.23,4.23,0,0,1,.17-1.3,2.61,2.61,0,0,1,.47-.91,1.88,1.88,0,0,1,.72-.53,2.24,2.24,0,0,1,.91-.17,1.81,1.81,0,0,1,.4,0,1.89,1.89,0,0,1,.36.1l.3.15a.88.88,0,0,1,.19.15.48.48,0,0,1,.08.1.36.36,0,0,1,0,.11s0,.1,0,.17,0,.14,0,.24a1.27,1.27,0,0,1-.06.46c0,.08-.07.13-.13.13a.34.34,0,0,1-.18-.08l-.23-.18a1.49,1.49,0,0,0-.31-.17,1.15,1.15,0,0,0-.44-.08.81.81,0,0,0-.75.43,2.31,2.31,0,0,0-.27,1.24,3,3,0,0,0,.07.71,1.66,1.66,0,0,0,.19.52.89.89,0,0,0,.33.31.94.94,0,0,0,.45.11,1,1,0,0,0,.45-.09,1.69,1.69,0,0,0,.33-.19,1.8,1.8,0,0,0,.24-.2.26.26,0,0,1,.16-.08.11.11,0,0,1,.08,0,.23.23,0,0,1,0,.11c0,.05,0,.11,0,.19S102.38,29.53,102.38,29.65Z" transform="translate(-1 -10.44)"/><path class="cls-1" d="M107.28,30.47a.17.17,0,0,1,0,.12.4.4,0,0,1-.16.07l-.32,0-.33,0a.35.35,0,0,1-.15-.07.16.16,0,0,1,0-.12v-.4a2.25,2.25,0,0,1-.64.52,1.73,1.73,0,0,1-.79.18,2,2,0,0,1-.66-.1,1.36,1.36,0,0,1-.52-.31,1.39,1.39,0,0,1-.34-.51,1.91,1.91,0,0,1-.13-.71,1.81,1.81,0,0,1,.16-.76,1.37,1.37,0,0,1,.46-.53,2,2,0,0,1,.76-.31,4.83,4.83,0,0,1,1.06-.1H106v-.31a1.68,1.68,0,0,0,0-.41.83.83,0,0,0-.14-.3.73.73,0,0,0-.27-.17,1.18,1.18,0,0,0-.41-.06,1.89,1.89,0,0,0-.56.08,2.34,2.34,0,0,0-.45.18l-.32.17a.46.46,0,0,1-.21.08.13.13,0,0,1-.1,0,.3.3,0,0,1-.07-.11.8.8,0,0,1,0-.18,1.66,1.66,0,0,1,0-.24,1,1,0,0,1,0-.27.66.66,0,0,1,.09-.19,1.25,1.25,0,0,1,.25-.18l.42-.18c.16,0,.33-.1.52-.14a3.58,3.58,0,0,1,.58-.05,3,3,0,0,1,.9.12,1.35,1.35,0,0,1,.62.35,1.38,1.38,0,0,1,.36.61,3.41,3.41,0,0,1,.11.9ZM106,28.32h-.49a2.54,2.54,0,0,0-.52.05,1,1,0,0,0-.36.16.59.59,0,0,0-.2.24.84.84,0,0,0-.06.33.66.66,0,0,0,.18.49.68.68,0,0,0,.5.18.86.86,0,0,0,.49-.15,2.32,2.32,0,0,0,.46-.44Z" transform="translate(-1 -10.44)"/><path class="cls-1" d="M113.06,30.45a.17.17,0,0,1,0,.1.2.2,0,0,1-.1.07l-.2,0-.3,0-.31,0a.77.77,0,0,1-.2,0,.2.2,0,0,1-.1-.07.17.17,0,0,1,0-.1V27.59a2.79,2.79,0,0,0-.05-.57,1.18,1.18,0,0,0-.14-.36.72.72,0,0,0-.23-.23.74.74,0,0,0-.34-.08.79.79,0,0,0-.49.2,2.69,2.69,0,0,0-.52.57v3.33a.17.17,0,0,1,0,.1.2.2,0,0,1-.1.07.77.77,0,0,1-.2,0l-.3,0-.31,0-.2,0a.2.2,0,0,1-.1-.07.17.17,0,0,1,0-.1v-5a.3.3,0,0,1,0-.1.22.22,0,0,1,.09-.07l.17,0h.53a.61.61,0,0,1,.17,0,.19.19,0,0,1,.08.07.17.17,0,0,1,0,.1V26a2.88,2.88,0,0,1,.76-.67,1.58,1.58,0,0,1,.81-.23,1.65,1.65,0,0,1,.77.17,1.33,1.33,0,0,1,.51.46,1.83,1.83,0,0,1,.28.67,4.22,4.22,0,0,1,.09.94Z" transform="translate(-1 -10.44)"/></g><g class="cls-2"><path class="cls-1" d="M122.08,30.45a.2.2,0,0,1,0,.11.17.17,0,0,1-.09.07,1,1,0,0,1-.23,0H121l-.2-.05a.2.2,0,0,1-.1-.08.37.37,0,0,1,0-.11l-.59-1.62c-.07-.19-.14-.35-.2-.49a2,2,0,0,0-.23-.36.77.77,0,0,0-.29-.22,1,1,0,0,0-.37-.07h-.42v2.77a.17.17,0,0,1,0,.1.24.24,0,0,1-.11.08l-.2,0-.32,0-.32,0-.21,0a.24.24,0,0,1-.11-.08.17.17,0,0,1,0-.1v-6.6a.47.47,0,0,1,.12-.36.39.39,0,0,1,.28-.11h2.12l.3,0a2.19,2.19,0,0,1,.71.22,1.62,1.62,0,0,1,.88,1,2.27,2.27,0,0,1,.11.77,2.3,2.3,0,0,1-.08.66,1.91,1.91,0,0,1-.25.54A1.68,1.68,0,0,1,121,27a1.9,1.9,0,0,1-.55.28,1.73,1.73,0,0,1,.28.19,1.55,1.55,0,0,1,.24.27,2.58,2.58,0,0,1,.22.37c.06.14.13.29.19.46L122,30c.05.14.08.24.1.31A1,1,0,0,1,122.08,30.45Zm-1.71-4.93a1.17,1.17,0,0,0-.15-.61.84.84,0,0,0-.48-.35l-.23,0-.36,0h-.6v2.06h.68a1.51,1.51,0,0,0,.5-.07.93.93,0,0,0,.35-.21,1,1,0,0,0,.22-.33A1.43,1.43,0,0,0,120.37,25.52Z" transform="translate(-1 -10.44)"/></g><g class="cls-2"><path class="cls-1" d="M127.28,27.8a.58.58,0,0,1-.1.38.38.38,0,0,1-.29.13h-2.75a2.15,2.15,0,0,0,.07.58,1.21,1.21,0,0,0,.22.44,1,1,0,0,0,.38.28,1.62,1.62,0,0,0,.57.09,2.51,2.51,0,0,0,.58-.05,2.13,2.13,0,0,0,.44-.12l.31-.11a.45.45,0,0,1,.2-.06l.07,0a.18.18,0,0,1,0,.07.49.49,0,0,1,0,.15c0,.06,0,.13,0,.23a1.34,1.34,0,0,1,0,.21c0,.06,0,.11,0,.15l0,.1a.24.24,0,0,1-.06.08.42.42,0,0,1-.18.11,1.74,1.74,0,0,1-.37.13,3.38,3.38,0,0,1-.52.11,3.22,3.22,0,0,1-.63.05,2.91,2.91,0,0,1-1.06-.17,1.79,1.79,0,0,1-.75-.51,2.08,2.08,0,0,1-.45-.86,5,5,0,0,1,0-2.43,2.69,2.69,0,0,1,.46-.91,2,2,0,0,1,.72-.57,2.34,2.34,0,0,1,1-.2,2.21,2.21,0,0,1,1,.19,1.68,1.68,0,0,1,.66.51,2.18,2.18,0,0,1,.38.78,3.76,3.76,0,0,1,.12,1ZM126,27.4a1.62,1.62,0,0,0-.21-.94.79.79,0,0,0-.71-.34.82.82,0,0,0-.42.1,1,1,0,0,0-.3.27,1.28,1.28,0,0,0-.18.41,1.94,1.94,0,0,0-.08.5Z" transform="translate(-1 -10.44)"/><path class="cls-1" d="M131.7,29a1.79,1.79,0,0,1-.14.75,1.39,1.39,0,0,1-.41.54,1.61,1.61,0,0,1-.62.33,2.85,2.85,0,0,1-1.26.07,2.13,2.13,0,0,1-.42-.11,1.42,1.42,0,0,1-.3-.13,1.11,1.11,0,0,1-.18-.12.57.57,0,0,1-.08-.19,1.7,1.7,0,0,1,0-.37,2.1,2.1,0,0,1,0-.27.33.33,0,0,1,0-.15.12.12,0,0,1,0-.08l.07,0a.32.32,0,0,1,.17.07,1.63,1.63,0,0,0,.27.15,2.29,2.29,0,0,0,.38.16,1.43,1.43,0,0,0,.48.07,1,1,0,0,0,.31,0,.55.55,0,0,0,.23-.11.43.43,0,0,0,.15-.18.55.55,0,0,0,.05-.26.48.48,0,0,0-.09-.29.87.87,0,0,0-.25-.21,2.28,2.28,0,0,0-.35-.17l-.4-.17-.4-.22a2,2,0,0,1-.35-.31,1.37,1.37,0,0,1-.24-.43,1.82,1.82,0,0,1,0-1.27,1.32,1.32,0,0,1,.36-.51,1.72,1.72,0,0,1,.58-.33,2.35,2.35,0,0,1,.77-.12,2.73,2.73,0,0,1,.41,0,2.7,2.7,0,0,1,.36.09,1.49,1.49,0,0,1,.28.11l.16.1a.33.33,0,0,1,.06.08.17.17,0,0,1,0,.1.61.61,0,0,1,0,.15,1.41,1.41,0,0,1,0,.22,1.63,1.63,0,0,1,0,.24.63.63,0,0,1,0,.16.13.13,0,0,1,0,.07l-.07,0a.3.3,0,0,1-.14-.06l-.24-.12a2.2,2.2,0,0,0-.34-.13,1.4,1.4,0,0,0-.43-.06.91.91,0,0,0-.3,0,.7.7,0,0,0-.21.11.66.66,0,0,0-.12.17.52.52,0,0,0,0,.21.44.44,0,0,0,.1.3,1,1,0,0,0,.25.2,2.42,2.42,0,0,0,.36.17l.4.17.41.22a1.43,1.43,0,0,1,.35.3,1.54,1.54,0,0,1,.26.43A1.8,1.8,0,0,1,131.7,29Z" transform="translate(-1 -10.44)"/><path class="cls-1" d="M137.4,27.87a5,5,0,0,1-.13,1.21,2.8,2.8,0,0,1-.37.91,1.67,1.67,0,0,1-1.47.78,1.37,1.37,0,0,1-.36,0,1.44,1.44,0,0,1-.32-.13,1.91,1.91,0,0,1-.3-.22,2.86,2.86,0,0,1-.32-.3v2.36a.17.17,0,0,1,0,.1.21.21,0,0,1-.1.08l-.2.05h-.61l-.2-.05a.21.21,0,0,1-.1-.08.17.17,0,0,1,0-.1v-7a.3.3,0,0,1,0-.1.22.22,0,0,1,.09-.07.61.61,0,0,1,.17,0h.51a.61.61,0,0,1,.17,0,.22.22,0,0,1,.09.07.17.17,0,0,1,0,.1V26c.13-.15.26-.28.38-.4a2.37,2.37,0,0,1,.39-.28,1.32,1.32,0,0,1,.41-.17,1.61,1.61,0,0,1,.44-.06,1.51,1.51,0,0,1,.85.22,1.7,1.7,0,0,1,.57.59,2.77,2.77,0,0,1,.32.88A5.16,5.16,0,0,1,137.4,27.87Zm-1.32.1a4.07,4.07,0,0,0-.05-.61,2.05,2.05,0,0,0-.14-.53.92.92,0,0,0-.28-.36.59.59,0,0,0-.42-.14.73.73,0,0,0-.25,0,.79.79,0,0,0-.25.14,1.23,1.23,0,0,0-.27.25,3.19,3.19,0,0,0-.29.37v1.65a3.08,3.08,0,0,0,.51.58.78.78,0,0,0,.51.21.64.64,0,0,0,.42-.14,1.09,1.09,0,0,0,.29-.37,1.91,1.91,0,0,0,.16-.51A2.78,2.78,0,0,0,136.08,28Z" transform="translate(-1 -10.44)"/><path class="cls-1" d="M142.9,30.45a.17.17,0,0,1,0,.1s0,.05-.09.07a.53.53,0,0,1-.16,0l-.26,0-.27,0a.61.61,0,0,1-.17,0s-.07,0-.08-.07a.17.17,0,0,1,0-.1v-.58a2.94,2.94,0,0,1-.76.68,1.58,1.58,0,0,1-.8.22,1.62,1.62,0,0,1-.79-.17,1.33,1.33,0,0,1-.51-.46,2,2,0,0,1-.28-.67,5.14,5.14,0,0,1-.08-1V25.44a.17.17,0,0,1,0-.1.2.2,0,0,1,.1-.07l.2,0h.61a.88.88,0,0,1,.2,0,.2.2,0,0,1,.1.07.17.17,0,0,1,0,.1v2.83a3,3,0,0,0,0,.6,1,1,0,0,0,.14.36.62.62,0,0,0,.57.31.78.78,0,0,0,.49-.19,3.44,3.44,0,0,0,.52-.58V25.44a.17.17,0,0,1,0-.1.2.2,0,0,1,.1-.07l.2,0h.61l.2,0a.26.26,0,0,1,.1.07.17.17,0,0,1,0,.1Z" transform="translate(-1 -10.44)"/></g><g class="cls-2"><path class="cls-1" d="M149,27.88a4.9,4.9,0,0,1-.13,1.2,3,3,0,0,1-.38.91,1.77,1.77,0,0,1-.61.58,1.72,1.72,0,0,1-.82.2,1.45,1.45,0,0,1-.43-.05,1.37,1.37,0,0,1-.38-.15,2.06,2.06,0,0,1-.35-.27,3.46,3.46,0,0,1-.36-.39v.54a.36.36,0,0,1,0,.11.29.29,0,0,1-.1.07.53.53,0,0,1-.17,0h-.51a.61.61,0,0,1-.17,0,.35.35,0,0,1-.09-.07.2.2,0,0,1,0-.11V23.06a.14.14,0,0,1,0-.1.2.2,0,0,1,.1-.07.74.74,0,0,1,.19-.05l.31,0,.31,0,.2.05a.2.2,0,0,1,.1.07.19.19,0,0,1,0,.1v2.77c.12-.12.23-.23.34-.32a1.69,1.69,0,0,1,.35-.22,1.48,1.48,0,0,1,.35-.13,1.61,1.61,0,0,1,.39,0,1.54,1.54,0,0,1,.85.22,1.82,1.82,0,0,1,.57.6,3,3,0,0,1,.32.88A5.22,5.22,0,0,1,149,27.88Zm-1.32.1c0-.21,0-.42,0-.62a2.05,2.05,0,0,0-.15-.53,1,1,0,0,0-.28-.36.6.6,0,0,0-.43-.14.67.67,0,0,0-.24,0,.79.79,0,0,0-.26.13,2.94,2.94,0,0,0-.26.25,3.39,3.39,0,0,0-.29.38v1.66a3.08,3.08,0,0,0,.51.58.85.85,0,0,0,.52.2.68.68,0,0,0,.42-.14,1.07,1.07,0,0,0,.28-.37,1.91,1.91,0,0,0,.17-.51A3.66,3.66,0,0,0,147.64,28Z" transform="translate(-1 -10.44)"/></g><g class="cls-2"><path class="cls-1" d="M151.36,30.45a.17.17,0,0,1,0,.1.23.23,0,0,1-.11.07l-.19,0-.31,0-.31,0a.88.88,0,0,1-.2,0,.26.26,0,0,1-.1-.07.17.17,0,0,1,0-.1V23.06a.19.19,0,0,1,0-.1.26.26,0,0,1,.1-.07l.2-.05.31,0,.31,0a.74.74,0,0,1,.19.05.23.23,0,0,1,.11.07.19.19,0,0,1,0,.1Z" transform="translate(-1 -10.44)"/><path class="cls-1" d="M154.19,23.74a.86.86,0,0,1-.15.59.8.8,0,0,1-.58.17.82.82,0,0,1-.58-.16.83.83,0,0,1-.15-.57.89.89,0,0,1,.15-.59.8.8,0,0,1,.59-.17.81.81,0,0,1,.57.16A.85.85,0,0,1,154.19,23.74Zm-.09,6.71a.17.17,0,0,1,0,.1.23.23,0,0,1-.11.07.69.69,0,0,1-.19,0l-.31,0-.31,0-.19,0a.23.23,0,0,1-.11-.07.17.17,0,0,1,0-.1v-5a.17.17,0,0,1,0-.1.35.35,0,0,1,.11-.07.74.74,0,0,1,.19-.05h.62a.64.64,0,0,1,.19.05.35.35,0,0,1,.11.07.17.17,0,0,1,0,.1Z" transform="translate(-1 -10.44)"/></g><g class="cls-2"><path class="cls-1" d="M159.78,30.46a.16.16,0,0,1,0,.1.24.24,0,0,1-.1.06.88.88,0,0,1-.2,0l-.33,0h-.34a.87.87,0,0,1-.21,0,.32.32,0,0,1-.13-.07.36.36,0,0,1-.08-.12l-1.51-2.64v2.65a.17.17,0,0,1,0,.1.2.2,0,0,1-.1.07.77.77,0,0,1-.2,0l-.3,0-.31,0-.2,0a.2.2,0,0,1-.1-.07.17.17,0,0,1,0-.1V23.06a.19.19,0,0,1,0-.1.2.2,0,0,1,.1-.07l.2-.05.31,0,.3,0a.72.72,0,0,1,.2.05.2.2,0,0,1,.1.07.19.19,0,0,1,0,.1v4.4l1.34-2a.62.62,0,0,1,.09-.12.47.47,0,0,1,.14-.08.88.88,0,0,1,.2,0h.64l.2,0a.19.19,0,0,1,.11.07.2.2,0,0,1,0,.11.45.45,0,0,1,0,.18.81.81,0,0,1-.11.2l-1.32,1.66,1.53,2.63a1.07,1.07,0,0,1,.09.19A.39.39,0,0,1,159.78,30.46Z" transform="translate(-1 -10.44)"/></g><g class="cls-2"><path class="cls-1" d="M164.54,30.47a.13.13,0,0,1,0,.12.34.34,0,0,1-.16.07l-.32,0-.33,0a.35.35,0,0,1-.15-.07.16.16,0,0,1,0-.12v-.4a2.25,2.25,0,0,1-.64.52,1.7,1.7,0,0,1-.79.18,2,2,0,0,1-.66-.1,1.44,1.44,0,0,1-.52-.31,1.39,1.39,0,0,1-.34-.51,1.92,1.92,0,0,1-.12-.71,1.81,1.81,0,0,1,.15-.76,1.37,1.37,0,0,1,.46-.53,2.09,2.09,0,0,1,.76-.31,4.83,4.83,0,0,1,1.06-.1h.44v-.31a1.68,1.68,0,0,0,0-.41.83.83,0,0,0-.14-.3.73.73,0,0,0-.27-.17,1.16,1.16,0,0,0-.4-.06,1.91,1.91,0,0,0-.57.08,2.34,2.34,0,0,0-.45.18l-.32.17a.43.43,0,0,1-.21.08.14.14,0,0,1-.1,0,.52.52,0,0,1-.07-.11c0-.05,0-.11,0-.18a1.77,1.77,0,0,1,0-.24,1,1,0,0,1,0-.27.5.5,0,0,1,.1-.19,1.13,1.13,0,0,1,.24-.18l.42-.18c.16,0,.33-.1.52-.14a3.68,3.68,0,0,1,.58-.05,3,3,0,0,1,.91.12,1.46,1.46,0,0,1,.62.35,1.36,1.36,0,0,1,.35.61,3,3,0,0,1,.11.9Zm-1.25-2.15h-.48a2.65,2.65,0,0,0-.53.05,1,1,0,0,0-.35.16.47.47,0,0,0-.2.24.7.7,0,0,0-.07.33.66.66,0,0,0,.18.49.68.68,0,0,0,.5.18.86.86,0,0,0,.49-.15,2.08,2.08,0,0,0,.46-.44Z" transform="translate(-1 -10.44)"/><path class="cls-1" d="M169.19,29a1.79,1.79,0,0,1-.15.75,1.37,1.37,0,0,1-.4.54,1.73,1.73,0,0,1-.63.33,2.39,2.39,0,0,1-.77.11,2.63,2.63,0,0,1-.49,0,2.22,2.22,0,0,1-.41-.11,1.42,1.42,0,0,1-.3-.13.79.79,0,0,1-.18-.12.42.42,0,0,1-.09-.19,1.7,1.7,0,0,1,0-.37c0-.11,0-.2,0-.27s0-.11,0-.15,0-.07.05-.08l.08,0a.3.3,0,0,1,.16.07l.27.15a2.72,2.72,0,0,0,.38.16,1.49,1.49,0,0,0,.49.07,1,1,0,0,0,.31,0,.61.61,0,0,0,.23-.11.65.65,0,0,0,.15-.18.71.71,0,0,0,0-.26.43.43,0,0,0-.1-.29.83.83,0,0,0-.24-.21,2.85,2.85,0,0,0-.35-.17l-.4-.17-.4-.22a1.73,1.73,0,0,1-.35-.31,1.39,1.39,0,0,1-.25-.43,1.82,1.82,0,0,1-.09-.61,1.76,1.76,0,0,1,.12-.66,1.46,1.46,0,0,1,.37-.51,1.72,1.72,0,0,1,.58-.33,2.29,2.29,0,0,1,.76-.12,2.86,2.86,0,0,1,.42,0,3.15,3.15,0,0,1,.36.09,1.16,1.16,0,0,1,.27.11.64.64,0,0,1,.16.1l.07.08,0,.1s0,.09,0,.15,0,.13,0,.22,0,.18,0,.24a1.57,1.57,0,0,1,0,.16.13.13,0,0,1-.05.07l-.07,0a.35.35,0,0,1-.14-.06,1.33,1.33,0,0,0-.24-.12,2.06,2.06,0,0,0-.33-.13,1.46,1.46,0,0,0-.44-.06.85.85,0,0,0-.29,0,.52.52,0,0,0-.21.11.38.38,0,0,0-.12.17.52.52,0,0,0,0,.21.49.49,0,0,0,.09.3,1.11,1.11,0,0,0,.26.2,2.28,2.28,0,0,0,.35.17l.41.17.4.22a1.31,1.31,0,0,1,.36.3,1.52,1.52,0,0,1,.25.43A1.57,1.57,0,0,1,169.19,29Z" transform="translate(-1 -10.44)"/></g><g class="cls-2"><path class="cls-1" d="M171.64,30.45a.17.17,0,0,1,0,.1.23.23,0,0,1-.11.07.69.69,0,0,1-.19,0l-.31,0-.31,0-.19,0a.23.23,0,0,1-.11-.07.17.17,0,0,1,0-.1v-5a.17.17,0,0,1,0-.1.23.23,0,0,1,.11-.07l.19,0h.62a.69.69,0,0,1,.19,0,.23.23,0,0,1,.11.07.17.17,0,0,1,0,.1Z" transform="translate(-1 -10.44)"/></g></g><g class="cls-2"><g class="cls-2"><path class="cls-1" d="M65.49,37.6a2.65,2.65,0,0,0-.77.11,5.71,5.71,0,0,0-.64.25l-.48.25a.74.74,0,0,1-.3.11s-.09-.06-.11-.17a2.33,2.33,0,0,1,0-.43c0-.06,0-.12,0-.19a1.21,1.21,0,0,1,0-.19.75.75,0,0,1,0-.16.36.36,0,0,1,.08-.12,1.93,1.93,0,0,1,.32-.22,3.39,3.39,0,0,1,.5-.22,4.82,4.82,0,0,1,.63-.16,3.7,3.7,0,0,1,.76-.07,3.11,3.11,0,0,1,2.47.94,4.12,4.12,0,0,1,.83,2.78,5.24,5.24,0,0,1-.21,1.53,3.35,3.35,0,0,1-.6,1.21,2.58,2.58,0,0,1-1,.78,3,3,0,0,1-1.35.29,2.91,2.91,0,0,1-1.25-.26,2.37,2.37,0,0,1-.89-.75A3.45,3.45,0,0,1,63,41.7a6.24,6.24,0,0,1-.19-1.63.51.51,0,0,1,.07-.28.26.26,0,0,1,.24-.12h4.28a3.64,3.64,0,0,0-.17-.86,1.93,1.93,0,0,0-.35-.65,1.39,1.39,0,0,0-.57-.41A1.94,1.94,0,0,0,65.49,37.6Zm.19,5.1a1.53,1.53,0,0,0,.64-.13,1.51,1.51,0,0,0,.49-.38,1.93,1.93,0,0,0,.34-.58,3.2,3.2,0,0,0,.2-.74H64.22a2.7,2.7,0,0,0,.12.71,2,2,0,0,0,.28.58,1.33,1.33,0,0,0,.45.4A1.31,1.31,0,0,0,65.68,42.7Z" transform="translate(-1 -10.44)"/><path class="cls-1" d="M77.22,43.58a.17.17,0,0,1,0,.1.2.2,0,0,1-.1.07.74.74,0,0,1-.19,0h-.63a.74.74,0,0,1-.19,0,.2.2,0,0,1-.1-.07.17.17,0,0,1,0-.1v-3a2.19,2.19,0,0,0,0-.46,1.51,1.51,0,0,0-.13-.36.84.84,0,0,0-.23-.23.63.63,0,0,0-.32-.08.74.74,0,0,0-.46.2,3.84,3.84,0,0,0-.51.57v3.33a.17.17,0,0,1,0,.1.2.2,0,0,1-.1.07.74.74,0,0,1-.19,0h-.62a.74.74,0,0,1-.19,0,.23.23,0,0,1-.11-.07.17.17,0,0,1,0-.1v-3a2.19,2.19,0,0,0,0-.46,1.17,1.17,0,0,0-.13-.36.8.8,0,0,0-.22-.23.66.66,0,0,0-.32-.08.77.77,0,0,0-.47.2,3.36,3.36,0,0,0-.5.57v3.33a.17.17,0,0,1,0,.1.2.2,0,0,1-.1.07.72.72,0,0,1-.2,0h-.61l-.2,0a.2.2,0,0,1-.1-.07.17.17,0,0,1,0-.1v-5a.36.36,0,0,1,0-.1.35.35,0,0,1,.09-.07l.17,0h.53l.17,0a.29.29,0,0,1,.08.07.19.19,0,0,1,0,.1v.58a3,3,0,0,1,.74-.67,1.5,1.5,0,0,1,.78-.23,1.55,1.55,0,0,1,.5.07,1.32,1.32,0,0,1,.4.18,1.64,1.64,0,0,1,.3.29,2,2,0,0,1,.21.38,5.5,5.5,0,0,1,.4-.42,2.82,2.82,0,0,1,.38-.28,1.72,1.72,0,0,1,.38-.16,1.32,1.32,0,0,1,.39-.06,1.61,1.61,0,0,1,.76.17,1.38,1.38,0,0,1,.5.46,1.8,1.8,0,0,1,.27.68,4.22,4.22,0,0,1,.08.82Z" transform="translate(-1 -10.44)"/><path class="cls-1" d="M78.44,41.22a.59.59,0,0,1,.1-.38.37.37,0,0,1,.29-.12h2.75a2.1,2.1,0,0,0-.07-.58,1.26,1.26,0,0,0-.22-.45.94.94,0,0,0-.38-.27,1.42,1.42,0,0,0-.57-.1,3.21,3.21,0,0,0-.58,0l-.44.12a2,2,0,0,0-.31.12.42.42,0,0,1-.2,0,.08.08,0,0,1-.07,0,.1.1,0,0,1,0-.07.42.42,0,0,1,0-.14c0-.06,0-.14,0-.23a1.22,1.22,0,0,1,0-.21c0-.06,0-.11,0-.15l0-.11.06-.08a.84.84,0,0,1,.18-.11l.37-.13a5.2,5.2,0,0,1,.52-.11,4.23,4.23,0,0,1,.63,0,3,3,0,0,1,1.05.17,1.76,1.76,0,0,1,.76.51,2.24,2.24,0,0,1,.45.87A4.42,4.42,0,0,1,82.87,41a4.5,4.5,0,0,1-.15,1.21,2.69,2.69,0,0,1-.46.91,2,2,0,0,1-.72.57,2.33,2.33,0,0,1-1,.19,2.37,2.37,0,0,1-1-.18,1.78,1.78,0,0,1-.66-.51,2.18,2.18,0,0,1-.38-.78,3.81,3.81,0,0,1-.12-1Zm1.24.41a1.5,1.5,0,0,0,.21.93.79.79,0,0,0,.71.34.82.82,0,0,0,.42-.1.77.77,0,0,0,.3-.27,1.22,1.22,0,0,0,.18-.4,2,2,0,0,0,.08-.5Z" transform="translate(-1 -10.44)"/><path class="cls-1" d="M88.28,43.59a.17.17,0,0,1,0,.1.2.2,0,0,1-.1.07l-.2,0h-.67l-.21,0a.4.4,0,0,1-.13-.07.62.62,0,0,1-.08-.12l-1.5-2.64v2.65a.17.17,0,0,1,0,.1.23.23,0,0,1-.11.07.64.64,0,0,1-.19,0h-.62a.74.74,0,0,1-.19,0,.23.23,0,0,1-.11-.07.17.17,0,0,1,0-.1V36.2a.17.17,0,0,1,0-.1.24.24,0,0,1,.11-.08.74.74,0,0,1,.19-.05l.31,0L85,36a.64.64,0,0,1,.19.05.24.24,0,0,1,.11.08.17.17,0,0,1,0,.1v4.4l1.33-2,.1-.12a.32.32,0,0,1,.13-.08l.21,0h.63l.21,0a.35.35,0,0,1,.11.07.2.2,0,0,1,0,.11.74.74,0,0,1,0,.18A.88.88,0,0,1,88,39l-1.32,1.66,1.53,2.63a1.54,1.54,0,0,1,.09.19A.49.49,0,0,1,88.28,43.59Z" transform="translate(-1 -10.44)"/><path class="cls-1" d="M96,38.57v.06s0,.06,0,.09,0,.07,0,.11l0,.14-1.36,4.54a.52.52,0,0,1-.07.15.28.28,0,0,1-.14.09.93.93,0,0,1-.27,0h-.88a1.46,1.46,0,0,1-.27,0,.28.28,0,0,1-.13-.1.26.26,0,0,1-.07-.14L91.34,39a1.94,1.94,0,0,1,0-.2,1.05,1.05,0,0,1,0-.13v-.07a.17.17,0,0,1,0-.1.2.2,0,0,1,.1-.07.69.69,0,0,1,.19,0h.65l.2,0a.2.2,0,0,1,.1.07.43.43,0,0,1,0,.12l1,3.68,0,.14,0-.14,1-3.68a.43.43,0,0,1,0-.12.26.26,0,0,1,.1-.07l.19,0h.62a.6.6,0,0,1,.18,0,.2.2,0,0,1,.1.07A.3.3,0,0,1,96,38.57Z" transform="translate(-1 -10.44)"/><path class="cls-1" d="M96.67,41.22a.59.59,0,0,1,.1-.38.37.37,0,0,1,.29-.12h2.75a2.56,2.56,0,0,0-.07-.58,1.26,1.26,0,0,0-.22-.45.94.94,0,0,0-.38-.27,1.42,1.42,0,0,0-.57-.1,3.21,3.21,0,0,0-.58,0l-.44.12a2,2,0,0,0-.31.12.45.45,0,0,1-.2,0,.08.08,0,0,1-.07,0,.1.1,0,0,1,0-.07.26.26,0,0,1,0-.14,1.55,1.55,0,0,1,0-.23,1.22,1.22,0,0,1,0-.21c0-.06,0-.11,0-.15l0-.11a.42.42,0,0,1,.06-.08.84.84,0,0,1,.18-.11l.37-.13a5.2,5.2,0,0,1,.52-.11,4.23,4.23,0,0,1,.63,0,3,3,0,0,1,1,.17,1.76,1.76,0,0,1,.76.51,2.24,2.24,0,0,1,.45.87A4.42,4.42,0,0,1,101.1,41a4.5,4.5,0,0,1-.15,1.21,2.69,2.69,0,0,1-.46.91,1.93,1.93,0,0,1-.73.57,2.25,2.25,0,0,1-1,.19,2.37,2.37,0,0,1-1-.18,1.78,1.78,0,0,1-.66-.51,2.18,2.18,0,0,1-.38-.78,3.81,3.81,0,0,1-.12-1Zm1.23.41a1.56,1.56,0,0,0,.22.93.79.79,0,0,0,.71.34.82.82,0,0,0,.42-.1.77.77,0,0,0,.3-.27,1.22,1.22,0,0,0,.18-.4,2,2,0,0,0,.08-.5Z" transform="translate(-1 -10.44)"/><path class="cls-1" d="M107.32,37.6a2.7,2.7,0,0,0-.77.11,5.71,5.71,0,0,0-.64.25l-.48.25a.74.74,0,0,1-.3.11s-.09-.06-.11-.17a2.33,2.33,0,0,1,0-.43c0-.06,0-.12,0-.19a1.21,1.21,0,0,1,0-.19.75.75,0,0,1,0-.16.36.36,0,0,1,.08-.12,1.93,1.93,0,0,1,.32-.22,3.39,3.39,0,0,1,.5-.22,4.82,4.82,0,0,1,.63-.16,3.7,3.7,0,0,1,.76-.07,3.1,3.1,0,0,1,2.47.94,4.12,4.12,0,0,1,.83,2.78,5.24,5.24,0,0,1-.21,1.53,3.35,3.35,0,0,1-.6,1.21,2.58,2.58,0,0,1-1,.78,3,3,0,0,1-1.35.29,2.83,2.83,0,0,1-1.24-.26,2.33,2.33,0,0,1-.9-.75,3.45,3.45,0,0,1-.54-1.21,6.24,6.24,0,0,1-.19-1.63.51.51,0,0,1,.07-.28.26.26,0,0,1,.24-.12h4.28a3.64,3.64,0,0,0-.17-.86,1.93,1.93,0,0,0-.35-.65,1.39,1.39,0,0,0-.57-.41A1.94,1.94,0,0,0,107.32,37.6Zm.19,5.1a1.4,1.4,0,0,0,1.13-.51,1.93,1.93,0,0,0,.34-.58,3.2,3.2,0,0,0,.2-.74h-3.13a2.7,2.7,0,0,0,.12.71,2,2,0,0,0,.28.58,1.33,1.33,0,0,0,.45.4A1.31,1.31,0,0,0,107.51,42.7Z" transform="translate(-1 -10.44)"/><path class="cls-1" d="M116.18,43.58a.17.17,0,0,1,0,.1.2.2,0,0,1-.1.07.72.72,0,0,1-.2,0h-.61a.72.72,0,0,1-.2,0,.2.2,0,0,1-.1-.07.17.17,0,0,1,0-.1V40.72a2.79,2.79,0,0,0,0-.57,1.18,1.18,0,0,0-.14-.36.84.84,0,0,0-.23-.23.74.74,0,0,0-.34-.08.82.82,0,0,0-.49.2,2.69,2.69,0,0,0-.52.57v3.33a.17.17,0,0,1,0,.1.2.2,0,0,1-.1.07.72.72,0,0,1-.2,0h-.61l-.2,0a.2.2,0,0,1-.1-.07.17.17,0,0,1,0-.1V36.2a.17.17,0,0,1,0-.1A.21.21,0,0,1,112,36a.83.83,0,0,1,.2-.05l.31,0,.3,0a.72.72,0,0,1,.2.05.21.21,0,0,1,.1.08.17.17,0,0,1,0,.1V39a2.65,2.65,0,0,1,.67-.54,1.54,1.54,0,0,1,.72-.18,1.65,1.65,0,0,1,.77.17,1.41,1.41,0,0,1,.51.46,1.88,1.88,0,0,1,.28.68,4.31,4.31,0,0,1,.09.95Z" transform="translate(-1 -10.44)"/><path class="cls-1" d="M121.47,43.6a.12.12,0,0,1,0,.12.27.27,0,0,1-.16.07l-.32,0-.33,0a.26.26,0,0,1-.15-.07.19.19,0,0,1,0-.12v-.4a2.06,2.06,0,0,1-.63.52,1.77,1.77,0,0,1-.8.18,2,2,0,0,1-.66-.1,1.44,1.44,0,0,1-.52-.31,1.34,1.34,0,0,1-.34-.51,1.86,1.86,0,0,1-.12-.7,1.82,1.82,0,0,1,.15-.77A1.46,1.46,0,0,1,118,41a2.26,2.26,0,0,1,.77-.31,4.68,4.68,0,0,1,1-.1h.44v-.31a1.73,1.73,0,0,0,0-.41.63.63,0,0,0-.4-.47,1.24,1.24,0,0,0-.41-.05,2,2,0,0,0-.57.07,2.67,2.67,0,0,0-.44.18l-.32.17a.4.4,0,0,1-.21.08.13.13,0,0,1-.1,0,.18.18,0,0,1-.07-.11.78.78,0,0,1,0-.18,1.77,1.77,0,0,1,0-.24,1.87,1.87,0,0,1,0-.27.4.4,0,0,1,.1-.18.77.77,0,0,1,.25-.18,2.63,2.63,0,0,1,.41-.19,3.59,3.59,0,0,1,.52-.13,2.78,2.78,0,0,1,.58-.06,3,3,0,0,1,.91.12,1.33,1.33,0,0,1,1,1,3,3,0,0,1,.11.89Zm-1.25-2.14h-.48a2.07,2.07,0,0,0-.53,0,.86.86,0,0,0-.35.15.64.64,0,0,0-.2.24.88.88,0,0,0-.07.33.64.64,0,0,0,.18.49.68.68,0,0,0,.5.18.89.89,0,0,0,.5-.15,2.05,2.05,0,0,0,.45-.44Z" transform="translate(-1 -10.44)"/><path class="cls-1" d="M124.22,43.58a.17.17,0,0,1,0,.1.23.23,0,0,1-.11.07.74.74,0,0,1-.19,0h-.62a.74.74,0,0,1-.19,0,.23.23,0,0,1-.11-.07.17.17,0,0,1,0-.1V36.2a.17.17,0,0,1,0-.1.24.24,0,0,1,.11-.08.74.74,0,0,1,.19-.05l.31,0,.31,0a.74.74,0,0,1,.19.05.24.24,0,0,1,.11.08.17.17,0,0,1,0,.1Z" transform="translate(-1 -10.44)"/><path class="cls-1" d="M127.06,36.88a.89.89,0,0,1-.16.59.84.84,0,0,1-.58.16.77.77,0,0,1-.58-.16.81.81,0,0,1-.15-.57.89.89,0,0,1,.15-.59.82.82,0,0,1,.59-.16.6.6,0,0,1,.73.73Zm-.1,6.7a.17.17,0,0,1,0,.1.2.2,0,0,1-.1.07l-.2,0H126a.74.74,0,0,1-.19,0,.2.2,0,0,1-.1-.07.17.17,0,0,1,0-.1v-5a.14.14,0,0,1,0-.09.21.21,0,0,1,.1-.08l.19,0h.62l.2,0a.21.21,0,0,1,.1.08.14.14,0,0,1,0,.09Z" transform="translate(-1 -10.44)"/><path class="cls-1" d="M132.74,43.58a.17.17,0,0,1,0,.1.2.2,0,0,1-.1.07.72.72,0,0,1-.2,0h-.61a.72.72,0,0,1-.2,0,.2.2,0,0,1-.1-.07.17.17,0,0,1,0-.1V40.72a2.79,2.79,0,0,0-.05-.57,1.18,1.18,0,0,0-.14-.36.84.84,0,0,0-.23-.23.74.74,0,0,0-.34-.08.82.82,0,0,0-.49.2,2.69,2.69,0,0,0-.52.57v3.33a.17.17,0,0,1,0,.1.2.2,0,0,1-.1.07.72.72,0,0,1-.2,0h-.61l-.2,0a.2.2,0,0,1-.1-.07.17.17,0,0,1,0-.1v-5a.36.36,0,0,1,0-.1.35.35,0,0,1,.09-.07l.17,0h.53l.17,0a.29.29,0,0,1,.08.07.19.19,0,0,1,0,.1v.58a2.88,2.88,0,0,1,.76-.67,1.61,1.61,0,0,1,.81-.23,1.65,1.65,0,0,1,.77.17,1.41,1.41,0,0,1,.51.46,1.81,1.81,0,0,1,.28.68,4.12,4.12,0,0,1,.09.93Z" transform="translate(-1 -10.44)"/><path class="cls-1" d="M135.56,36.88a.61.61,0,0,1-.74.75.77.77,0,0,1-.58-.16.81.81,0,0,1-.15-.57.83.83,0,0,1,.16-.59.77.77,0,0,1,.58-.16.79.79,0,0,1,.58.16A.81.81,0,0,1,135.56,36.88Zm-.1,6.7a.17.17,0,0,1,0,.1.2.2,0,0,1-.1.07.72.72,0,0,1-.2,0h-.61a.83.83,0,0,1-.2,0,.2.2,0,0,1-.1-.07.17.17,0,0,1,0-.1v-5a.14.14,0,0,1,0-.09.21.21,0,0,1,.1-.08l.2,0h.61l.2,0a.21.21,0,0,1,.1.08.14.14,0,0,1,0,.09Z" transform="translate(-1 -10.44)"/></g><g class="cls-2"><path class="cls-1" d="M141.39,43.58a.17.17,0,0,1,0,.1.2.2,0,0,1-.1.07.74.74,0,0,1-.19,0h-.62l-.2,0a.26.26,0,0,1-.1-.07.17.17,0,0,1,0-.1V40.72a2.22,2.22,0,0,0-.05-.57,1.17,1.17,0,0,0-.13-.36.88.88,0,0,0-.24-.23.74.74,0,0,0-.34-.08.82.82,0,0,0-.49.2,2.68,2.68,0,0,0-.51.57v3.33a.17.17,0,0,1,0,.1.23.23,0,0,1-.11.07.74.74,0,0,1-.19,0h-.62l-.2,0a.26.26,0,0,1-.1-.07.17.17,0,0,1,0-.1v-5a.19.19,0,0,1,0-.1.17.17,0,0,1,.09-.07l.17,0h.53l.16,0a.19.19,0,0,1,.08.07.19.19,0,0,1,0,.1v.58a2.88,2.88,0,0,1,.76-.67,1.61,1.61,0,0,1,.81-.23,1.65,1.65,0,0,1,.77.17,1.37,1.37,0,0,1,.52.46,2,2,0,0,1,.28.68,4.88,4.88,0,0,1,.08.93Z" transform="translate(-1 -10.44)"/></g></g><g class="cls-2"><g class="cls-2"><path class="cls-1" d="M67,54.73a2.41,2.41,0,0,1-.19,1,2.16,2.16,0,0,1-.52.73,2.32,2.32,0,0,1-.77.43,2.94,2.94,0,0,1-.94.15,2.48,2.48,0,0,1-.63-.07,4.25,4.25,0,0,1-.52-.14,1.81,1.81,0,0,1-.37-.19,1.11,1.11,0,0,1-.21-.16.41.41,0,0,1-.1-.22,1.92,1.92,0,0,1,0-.39c0-.12,0-.22,0-.29a.69.69,0,0,1,0-.19.17.17,0,0,1,.06-.11.12.12,0,0,1,.09,0,.45.45,0,0,1,.2.09l.33.21a2.78,2.78,0,0,0,.48.2,2.16,2.16,0,0,0,.65.1,1.5,1.5,0,0,0,.44-.07.83.83,0,0,0,.32-.18.86.86,0,0,0,.21-.29,1,1,0,0,0,.07-.39.75.75,0,0,0-.12-.43,1.35,1.35,0,0,0-.32-.31,3.65,3.65,0,0,0-.44-.26l-.51-.25a4.33,4.33,0,0,1-.51-.31,1.89,1.89,0,0,1-.76-1,2.21,2.21,0,0,1-.12-.78,2.25,2.25,0,0,1,.17-.92,1.85,1.85,0,0,1,.47-.65,1.79,1.79,0,0,1,.7-.39,2.65,2.65,0,0,1,.85-.13,2.49,2.49,0,0,1,.47,0,2.71,2.71,0,0,1,.43.1,2,2,0,0,1,.36.16.57.57,0,0,1,.21.14l.07.09a.81.81,0,0,1,0,.11s0,.09,0,.16v.24a2.35,2.35,0,0,1,0,.28.82.82,0,0,1,0,.18.23.23,0,0,1,0,.11.12.12,0,0,1-.09,0,.38.38,0,0,1-.18-.07,3.38,3.38,0,0,0-.3-.18,2.34,2.34,0,0,0-.41-.16,1.37,1.37,0,0,0-.51-.08,1.12,1.12,0,0,0-.38.06.66.66,0,0,0-.43.41.81.81,0,0,0,0,.31.74.74,0,0,0,.12.42,1.14,1.14,0,0,0,.31.31,2.9,2.9,0,0,0,.46.26l.51.26a5.39,5.39,0,0,1,.52.3,2.52,2.52,0,0,1,.45.41,2,2,0,0,1,.32.57A2.16,2.16,0,0,1,67,54.73Z" transform="translate(-1 -10.44)"/></g><g class="cls-2"><path class="cls-1" d="M72.75,54.16a3.9,3.9,0,0,1-.16,1.17,2.52,2.52,0,0,1-.46.91,2.06,2.06,0,0,1-.77.59,2.62,2.62,0,0,1-1.09.21,2.81,2.81,0,0,1-1-.19,1.89,1.89,0,0,1-.74-.54,2.22,2.22,0,0,1-.43-.87,4.83,4.83,0,0,1,0-2.35,2.6,2.6,0,0,1,.46-.91,2.18,2.18,0,0,1,.78-.59,2.6,2.6,0,0,1,1.08-.21,2.83,2.83,0,0,1,1.06.19,1.86,1.86,0,0,1,.73.53,2.22,2.22,0,0,1,.43.87A4.3,4.3,0,0,1,72.75,54.16Zm-1.31.06a3.69,3.69,0,0,0-.06-.69A1.56,1.56,0,0,0,71.2,53a1,1,0,0,0-.33-.36,1.06,1.06,0,0,0-.53-.13,1,1,0,0,0-.5.12.92.92,0,0,0-.35.33,1.64,1.64,0,0,0-.2.54,3,3,0,0,0-.07.71,4.72,4.72,0,0,0,0,.68,1.9,1.9,0,0,0,.18.54.91.91,0,0,0,.34.36,1,1,0,0,0,.53.13,1,1,0,0,0,.5-.12.92.92,0,0,0,.35-.33,1.58,1.58,0,0,0,.2-.53A3.79,3.79,0,0,0,71.44,54.22Z" transform="translate(-1 -10.44)"/><path class="cls-1" d="M77.13,55.3a1.73,1.73,0,0,1-.15.75,1.48,1.48,0,0,1-.4.55,2.1,2.1,0,0,1-.63.33,2.62,2.62,0,0,1-1.26.06,2.24,2.24,0,0,1-.41-.1l-.3-.13a.76.76,0,0,1-.18-.13.37.37,0,0,1-.09-.19,1.64,1.64,0,0,1,0-.37c0-.11,0-.2,0-.26a1.57,1.57,0,0,1,0-.16.28.28,0,0,1,0-.08l.08,0a.4.4,0,0,1,.16.07l.27.16.38.16a1.87,1.87,0,0,0,.49.07,1,1,0,0,0,.31,0,.82.82,0,0,0,.23-.11.58.58,0,0,0,.15-.19.67.67,0,0,0,0-.26.48.48,0,0,0-.09-.29,1,1,0,0,0-.25-.21l-.35-.17-.4-.17a3.11,3.11,0,0,1-.4-.22,1.43,1.43,0,0,1-.35-.3,1.52,1.52,0,0,1-.25-.43,1.87,1.87,0,0,1-.09-.61,1.76,1.76,0,0,1,.12-.66,1.59,1.59,0,0,1,.37-.52,1.72,1.72,0,0,1,.58-.33,2.29,2.29,0,0,1,.76-.12,2.85,2.85,0,0,1,.42,0l.36.08a1.86,1.86,0,0,1,.27.11l.16.1a.28.28,0,0,1,.07.09l0,.1s0,.09,0,.14,0,.14,0,.22,0,.18,0,.25l0,.15a.15.15,0,0,1,0,.08l-.08,0a.35.35,0,0,1-.14-.06l-.24-.13L76,52.44a1.44,1.44,0,0,0-.43-.06,1.21,1.21,0,0,0-.3,0,.53.53,0,0,0-.21.12.41.41,0,0,0-.12.17.46.46,0,0,0,0,.21.48.48,0,0,0,.09.29.92.92,0,0,0,.26.21,3.84,3.84,0,0,0,.35.17l.41.17a3.84,3.84,0,0,1,.4.21,1.55,1.55,0,0,1,.36.31,1.39,1.39,0,0,1,.25.43A1.49,1.49,0,0,1,77.13,55.3Z" transform="translate(-1 -10.44)"/><path class="cls-1" d="M79.65,50a.89.89,0,0,1-.15.59.81.81,0,0,1-.58.16.77.77,0,0,1-.58-.16.8.8,0,0,1-.15-.56.9.9,0,0,1,.15-.6.8.8,0,0,1,.59-.16.76.76,0,0,1,.57.16A.81.81,0,0,1,79.65,50Zm-.09,6.71a.14.14,0,0,1,0,.09.24.24,0,0,1-.11.08l-.19,0h-.62l-.19,0a.24.24,0,0,1-.11-.08.14.14,0,0,1,0-.09v-5a.17.17,0,0,1,0-.1.35.35,0,0,1,.11-.08l.19,0,.31,0,.31,0a.69.69,0,0,1,.19,0,.35.35,0,0,1,.11.08.17.17,0,0,1,0,.1Z" transform="translate(-1 -10.44)"/><path class="cls-1" d="M84.87,56.73a.14.14,0,0,1-.05.13.27.27,0,0,1-.16.06l-.32,0-.33,0a.26.26,0,0,1-.15-.06.17.17,0,0,1,0-.13v-.4a2,2,0,0,1-.64.52,1.71,1.71,0,0,1-.79.19,2,2,0,0,1-.66-.11,1.44,1.44,0,0,1-.52-.31,1.27,1.27,0,0,1-.34-.5,2,2,0,0,1-.12-.71,1.78,1.78,0,0,1,.15-.76,1.33,1.33,0,0,1,.46-.54,2.29,2.29,0,0,1,.76-.31,4.83,4.83,0,0,1,1.06-.1h.44v-.3a1.76,1.76,0,0,0,0-.42.87.87,0,0,0-.14-.29.64.64,0,0,0-.27-.18,1.5,1.5,0,0,0-.4,0,1.64,1.64,0,0,0-.57.08,3.28,3.28,0,0,0-.45.17l-.32.17a.35.35,0,0,1-.21.08.14.14,0,0,1-.1,0,.35.35,0,0,1-.07-.11.8.8,0,0,1,0-.18,1.69,1.69,0,0,1,0-.23,1.1,1.1,0,0,1,0-.28.4.4,0,0,1,.1-.18.71.71,0,0,1,.24-.18,2,2,0,0,1,.42-.18,2.63,2.63,0,0,1,.52-.14,2.78,2.78,0,0,1,.58-.06,3,3,0,0,1,.91.12,1.57,1.57,0,0,1,.62.35,1.4,1.4,0,0,1,.35.62,3,3,0,0,1,.11.89Zm-1.25-2.14h-.48a2.07,2.07,0,0,0-.53,0,.81.81,0,0,0-.35.15.56.56,0,0,0-.2.24.72.72,0,0,0-.07.33.62.62,0,0,0,.68.68.8.8,0,0,0,.49-.16,1.87,1.87,0,0,0,.46-.44Z" transform="translate(-1 -10.44)"/><path class="cls-1" d="M87.62,56.72a.11.11,0,0,1,0,.09.21.21,0,0,1-.1.08l-.19,0h-.62l-.2,0a.21.21,0,0,1-.1-.08.14.14,0,0,1,0-.09V49.33a.17.17,0,0,1,0-.1.21.21,0,0,1,.1-.08l.2,0h.62a.74.74,0,0,1,.19,0,.21.21,0,0,1,.1.08.13.13,0,0,1,0,.1Z" transform="translate(-1 -10.44)"/></g><g class="cls-2"><path class="cls-1" d="M99.39,56.71a.19.19,0,0,1,0,.1s0,0-.1.07l-.19,0a1.42,1.42,0,0,1-.31,0,1.32,1.32,0,0,1-.3,0l-.2,0a.26.26,0,0,1-.1-.07.19.19,0,0,1,0-.1V50.79h0l-1.9,5.91a.23.23,0,0,1-.06.12.32.32,0,0,1-.13.08.56.56,0,0,1-.2,0h-.58l-.2,0a.32.32,0,0,1-.13-.07.24.24,0,0,1-.06-.11L93,50.79h0v5.92a.19.19,0,0,1,0,.1.2.2,0,0,1-.1.07l-.2,0a1.32,1.32,0,0,1-.3,0,1.42,1.42,0,0,1-.31,0l-.19,0a.2.2,0,0,1-.1-.07.19.19,0,0,1,0-.1V50.23a.6.6,0,0,1,.14-.44.46.46,0,0,1,.36-.15h.87a1.54,1.54,0,0,1,.4,0,.71.71,0,0,1,.29.14.75.75,0,0,1,.2.26,1.77,1.77,0,0,1,.14.39l1.42,4.34h0l1.47-4.32a2.3,2.3,0,0,1,.14-.4,1.58,1.58,0,0,1,.18-.27.77.77,0,0,1,.25-.14,1.06,1.06,0,0,1,.33,0h.9a.56.56,0,0,1,.23,0,.31.31,0,0,1,.16.11.49.49,0,0,1,.1.19.9.9,0,0,1,0,.25Z" transform="translate(-1 -10.44)"/></g><g class="cls-2"><path class="cls-1" d="M105.27,56.72a.13.13,0,0,1,0,.09.24.24,0,0,1-.09.08l-.17,0h-.53l-.16,0a.24.24,0,0,1-.09-.08.13.13,0,0,1,0-.09v-.58a2.91,2.91,0,0,1-.77.67,1.54,1.54,0,0,1-.8.23,1.67,1.67,0,0,1-.78-.17,1.41,1.41,0,0,1-.51-.46,2.07,2.07,0,0,1-.28-.68,4.41,4.41,0,0,1-.08-1V51.7a.24.24,0,0,1,0-.09.23.23,0,0,1,.11-.07.64.64,0,0,1,.19,0h.62a.74.74,0,0,1,.19,0,.23.23,0,0,1,.11.07.14.14,0,0,1,0,.09v2.84a3.12,3.12,0,0,0,0,.6,1,1,0,0,0,.14.35.59.59,0,0,0,.24.23.64.64,0,0,0,.34.09.77.77,0,0,0,.48-.2A3,3,0,0,0,104,55V51.7a.14.14,0,0,1,0-.09s0,0,.1-.07a.74.74,0,0,1,.19,0H105a.74.74,0,0,1,.19,0,.2.2,0,0,1,.1.07.14.14,0,0,1,0,.09ZM102.79,50a.83.83,0,0,1-.14.55.63.63,0,0,1-.5.16.69.69,0,0,1-.52-.15.87.87,0,0,1-.13-.53.83.83,0,0,1,.14-.55.64.64,0,0,1,.51-.16.67.67,0,0,1,.51.15A.81.81,0,0,1,102.79,50Zm2,0a.83.83,0,0,1-.14.55.92.92,0,0,1-1,0,.87.87,0,0,1-.13-.53.83.83,0,0,1,.14-.55.63.63,0,0,1,.5-.16.69.69,0,0,1,.52.15A.87.87,0,0,1,104.77,50Z" transform="translate(-1 -10.44)"/><path class="cls-1" d="M111,56.72a.16.16,0,0,1,0,.1.22.22,0,0,1-.09.07l-.16,0h-.52l-.17,0a.22.22,0,0,1-.09-.07.16.16,0,0,1,0-.1v-.56a3.14,3.14,0,0,1-.74.65,1.6,1.6,0,0,1-.84.23,1.62,1.62,0,0,1-.88-.23,1.73,1.73,0,0,1-.58-.59,2.87,2.87,0,0,1-.33-.88,6.05,6.05,0,0,1-.1-1.06,5.38,5.38,0,0,1,.13-1.2,2.8,2.8,0,0,1,.38-.91,1.56,1.56,0,0,1,.62-.58,1.67,1.67,0,0,1,.85-.21,1.37,1.37,0,0,1,.69.18,2.44,2.44,0,0,1,.61.5V49.35a.2.2,0,0,1,0-.11s0-.05.1-.07a.74.74,0,0,1,.19-.05l.31,0,.31,0a.74.74,0,0,1,.19.05.2.2,0,0,1,.1.07.2.2,0,0,1,0,.11Zm-1.26-3.35a2.87,2.87,0,0,0-.53-.59.83.83,0,0,0-.52-.2.71.71,0,0,0-.43.14,1,1,0,0,0-.29.37,2.35,2.35,0,0,0-.16.51,3.68,3.68,0,0,0,0,.58,4,4,0,0,0,0,.61,2.65,2.65,0,0,0,.15.54,1.07,1.07,0,0,0,.28.37.68.68,0,0,0,.44.14.73.73,0,0,0,.25,0,1,1,0,0,0,.25-.14,1.54,1.54,0,0,0,.27-.25c.09-.1.19-.23.3-.38Z" transform="translate(-1 -10.44)"/><path class="cls-1" d="M116.36,56.73a.17.17,0,0,1,0,.13.34.34,0,0,1-.16.06l-.32,0-.34,0a.26.26,0,0,1-.14-.06.17.17,0,0,1,0-.13v-.4a2,2,0,0,1-.64.52,1.74,1.74,0,0,1-.79.19,2,2,0,0,1-.66-.11,1.36,1.36,0,0,1-.52-.31,1.41,1.41,0,0,1-.35-.5,2,2,0,0,1-.12-.71,1.64,1.64,0,0,1,.16-.76,1.26,1.26,0,0,1,.46-.54,2.2,2.2,0,0,1,.76-.31,4.77,4.77,0,0,1,1.06-.1h.44v-.3a1.73,1.73,0,0,0,0-.42.61.61,0,0,0-.14-.29.55.55,0,0,0-.26-.18,1.58,1.58,0,0,0-.41,0,1.71,1.71,0,0,0-.57.08,3.68,3.68,0,0,0-.44.17l-.32.17a.4.4,0,0,1-.21.08.13.13,0,0,1-.1,0,.23.23,0,0,1-.07-.11.8.8,0,0,1,0-.18,1.64,1.64,0,0,1,0-.23,1,1,0,0,1,0-.28.31.31,0,0,1,.09-.18.77.77,0,0,1,.25-.18,2,2,0,0,1,.42-.18,2.53,2.53,0,0,1,.51-.14,2.78,2.78,0,0,1,.58-.06,3,3,0,0,1,.91.12,1.36,1.36,0,0,1,1,1,3.33,3.33,0,0,1,.11.89Zm-1.25-2.14h-.49a2,2,0,0,0-.52,0,.85.85,0,0,0-.36.15.64.64,0,0,0-.2.24.88.88,0,0,0-.06.33.68.68,0,0,0,.18.5.67.67,0,0,0,.5.18.8.8,0,0,0,.49-.16,2.06,2.06,0,0,0,.46-.44Z" transform="translate(-1 -10.44)"/><path class="cls-1" d="M122.23,56.72a.14.14,0,0,1,0,.09.21.21,0,0,1-.1.08l-.19,0h-.62l-.19,0a.24.24,0,0,1-.11-.08.14.14,0,0,1,0-.09V52.66h-1.67v4.06a.14.14,0,0,1,0,.09.27.27,0,0,1-.1.08l-.2,0h-.62l-.19,0a.17.17,0,0,1-.1-.08.14.14,0,0,1,0-.09V52.66h-.57c-.06,0-.11,0-.14-.13a1.22,1.22,0,0,1,0-.44,2.35,2.35,0,0,1,0-.28.8.8,0,0,1,0-.18.15.15,0,0,1,.06-.09.12.12,0,0,1,.09,0H118v-.44a3.87,3.87,0,0,1,.09-.89,1.64,1.64,0,0,1,.29-.64,1.18,1.18,0,0,1,.48-.38,1.68,1.68,0,0,1,.7-.13h.22l.22,0,.17.05a.23.23,0,0,1,.11,0l0,.08a.15.15,0,0,1,0,.1.63.63,0,0,1,0,.16c0,.06,0,.14,0,.24a1.62,1.62,0,0,1,0,.38c0,.07-.06.11-.11.11h-.07l-.09,0-.12,0h-.18a.41.41,0,0,0-.39.2,1.37,1.37,0,0,0-.12.67v.47h2.56a.38.38,0,0,1,.29.1.4.4,0,0,1,.09.29Zm.1-6.7a1.69,1.69,0,0,1,0,.35.42.42,0,0,1-.12.23.36.36,0,0,1-.22.12,1.13,1.13,0,0,1-.34,0,1.16,1.16,0,0,1-.35,0,.42.42,0,0,1-.23-.12.49.49,0,0,1-.11-.23,1.16,1.16,0,0,1,0-.35,1.09,1.09,0,0,1,0-.34.49.49,0,0,1,.11-.23.44.44,0,0,1,.23-.13,1.16,1.16,0,0,1,.35,0,1.13,1.13,0,0,1,.34,0,.37.37,0,0,1,.22.13.42.42,0,0,1,.12.23A1.58,1.58,0,0,1,122.33,50Z" transform="translate(-1 -10.44)"/><path class="cls-1" d="M123.48,54.36a.6.6,0,0,1,.11-.39.35.35,0,0,1,.28-.12h2.75a2.1,2.1,0,0,0-.07-.58,1.06,1.06,0,0,0-.21-.44.85.85,0,0,0-.39-.28,1.37,1.37,0,0,0-.56-.1,2.55,2.55,0,0,0-.59.06,3.52,3.52,0,0,0-.44.11l-.3.12a.45.45,0,0,1-.2,0h-.08l0-.07s0-.09,0-.15v-.44a.61.61,0,0,1,0-.15.2.2,0,0,1,0-.11l0-.08a.61.61,0,0,1,.18-.1,2.93,2.93,0,0,1,.37-.14c.16,0,.33-.08.53-.11a4,4,0,0,1,.62,0,3.06,3.06,0,0,1,1.06.17,2.12,2.12,0,0,1,.76.51,2.24,2.24,0,0,1,.45.87,4.48,4.48,0,0,1,.15,1.22,4.12,4.12,0,0,1-.16,1.21,2.67,2.67,0,0,1-.45.91,2,2,0,0,1-.73.57,2.34,2.34,0,0,1-1,.2,2.31,2.31,0,0,1-1-.19,1.79,1.79,0,0,1-.67-.51,2.17,2.17,0,0,1-.37-.78,3.42,3.42,0,0,1-.13-1Zm1.24.4a1.62,1.62,0,0,0,.21.94.83.83,0,0,0,.72.34.93.93,0,0,0,.42-.1.89.89,0,0,0,.3-.28,1.22,1.22,0,0,0,.18-.4,2,2,0,0,0,.07-.5Z" transform="translate(-1 -10.44)"/><path class="cls-1" d="M132.26,55.3a1.73,1.73,0,0,1-.15.75,1.5,1.5,0,0,1-.41.55,1.93,1.93,0,0,1-.62.33,2.77,2.77,0,0,1-.78.11,2.44,2.44,0,0,1-.48,0,2.05,2.05,0,0,1-.41-.1l-.31-.13a1.06,1.06,0,0,1-.18-.13.49.49,0,0,1-.08-.19,1.64,1.64,0,0,1,0-.37,1.86,1.86,0,0,1,0-.26,1.57,1.57,0,0,1,0-.16.16.16,0,0,1,.05-.08.15.15,0,0,1,.08,0,.47.47,0,0,1,.16.07l.27.16a3.64,3.64,0,0,0,.38.16,1.75,1.75,0,0,0,.49.07,1,1,0,0,0,.3,0,.88.88,0,0,0,.24-.11.45.45,0,0,0,.14-.19.53.53,0,0,0,.06-.26.48.48,0,0,0-.1-.29.75.75,0,0,0-.25-.21,3.84,3.84,0,0,0-.35-.17l-.4-.17a4,4,0,0,1-.4-.22,1.38,1.38,0,0,1-.34-.3,1.31,1.31,0,0,1-.25-.43,1.63,1.63,0,0,1-.1-.61,1.76,1.76,0,0,1,.13-.66,1.57,1.57,0,0,1,.36-.52,1.83,1.83,0,0,1,.58-.33,2.35,2.35,0,0,1,.77-.12,2.71,2.71,0,0,1,.41,0,3,3,0,0,1,.37.08l.27.11.16.1.07.09,0,.1s0,.09,0,.14a1.48,1.48,0,0,1,0,.22,1.85,1.85,0,0,1,0,.25.61.61,0,0,1,0,.15.16.16,0,0,1-.05.08l-.07,0a.3.3,0,0,1-.14-.06l-.24-.13-.34-.13a1.4,1.4,0,0,0-.43-.06,1.36,1.36,0,0,0-.3,0,.56.56,0,0,0-.2.12.43.43,0,0,0-.13.17.65.65,0,0,0,0,.21.48.48,0,0,0,.1.29.87.87,0,0,0,.25.21l.36.17.4.17a3.17,3.17,0,0,1,.41.21,2.11,2.11,0,0,1,.36.31,1.62,1.62,0,0,1,.25.43A1.69,1.69,0,0,1,132.26,55.3Z" transform="translate(-1 -10.44)"/><path class="cls-1" d="M134.78,50a.83.83,0,0,1-.16.59.79.79,0,0,1-.58.16.77.77,0,0,1-.58-.16.8.8,0,0,1-.15-.56.85.85,0,0,1,.16-.6.77.77,0,0,1,.58-.16.79.79,0,0,1,.58.16A.81.81,0,0,1,134.78,50Zm-.1,6.71a.14.14,0,0,1,0,.09.21.21,0,0,1-.1.08l-.19,0h-.62l-.2,0a.21.21,0,0,1-.1-.08.14.14,0,0,1,0-.09v-5a.17.17,0,0,1,0-.1.29.29,0,0,1,.1-.08l.2,0,.31,0,.31,0,.19,0a.29.29,0,0,1,.1.08.17.17,0,0,1,0,.1Z" transform="translate(-1 -10.44)"/></g><g class="cls-2"><path class="cls-1" d="M144.36,56.39a.56.56,0,0,1-.05.23.39.39,0,0,1-.27.27.58.58,0,0,1-.19,0h-.56a1,1,0,0,1-.31,0,.75.75,0,0,1-.24-.14,1.7,1.7,0,0,1-.21-.28c-.06-.12-.14-.28-.22-.46l-1.63-3.4a6.86,6.86,0,0,1-.29-.66c-.1-.23-.19-.46-.27-.68h0q0,.41,0,.81c0,.27,0,.54,0,.83v3.8a.3.3,0,0,1,0,.1.21.21,0,0,1-.1.08l-.18,0a2.26,2.26,0,0,1-.6,0,.69.69,0,0,1-.18,0,.24.24,0,0,1-.09-.08.17.17,0,0,1,0-.1V50.17a.54.54,0,0,1,.14-.4.49.49,0,0,1,.35-.13h.71a1.39,1.39,0,0,1,.32,0,.9.9,0,0,1,.24.12,1,1,0,0,1,.19.24,2.51,2.51,0,0,1,.19.37l1.28,2.65c.07.16.14.32.22.48l.21.46c.06.16.13.31.19.46s.13.3.19.45h0c0-.26,0-.53,0-.82V49.86a.17.17,0,0,1,0-.1.21.21,0,0,1,.1-.08.43.43,0,0,1,.18,0l.3,0,.29,0a.39.39,0,0,1,.18,0,.24.24,0,0,1,.09.08.17.17,0,0,1,0,.1Z" transform="translate(-1 -10.44)"/></g><g class="cls-2"><path class="cls-1" d="M149.65,56.73a.17.17,0,0,1-.05.13.34.34,0,0,1-.16.06l-.32,0-.34,0a.23.23,0,0,1-.14-.06.17.17,0,0,1,0-.13v-.4a1.83,1.83,0,0,1-.63.52,1.74,1.74,0,0,1-.79.19,2,2,0,0,1-.66-.11,1.48,1.48,0,0,1-.53-.31,1.39,1.39,0,0,1-.34-.5,2,2,0,0,1-.12-.71,1.64,1.64,0,0,1,.16-.76,1.26,1.26,0,0,1,.46-.54,2.12,2.12,0,0,1,.76-.31,4.71,4.71,0,0,1,1.06-.1h.44v-.3a1.73,1.73,0,0,0-.05-.42.71.71,0,0,0-.14-.29.55.55,0,0,0-.26-.18,1.58,1.58,0,0,0-.41,0,1.71,1.71,0,0,0-.57.08,3.12,3.12,0,0,0-.44.17l-.32.17A.4.4,0,0,1,146,53a.13.13,0,0,1-.1,0,.23.23,0,0,1-.07-.11.78.78,0,0,1-.05-.18,1.69,1.69,0,0,1,0-.23,1.91,1.91,0,0,1,0-.28.4.4,0,0,1,.1-.18.77.77,0,0,1,.25-.18,2.2,2.2,0,0,1,.41-.18,2.83,2.83,0,0,1,.52-.14,2.78,2.78,0,0,1,.58-.06,3,3,0,0,1,.91.12,1.36,1.36,0,0,1,1,1,3.33,3.33,0,0,1,.11.89Zm-1.25-2.14h-.49a2.07,2.07,0,0,0-.53,0,.86.86,0,0,0-.35.15.64.64,0,0,0-.2.24.88.88,0,0,0-.06.33.68.68,0,0,0,.18.5.67.67,0,0,0,.5.18.82.82,0,0,0,.49-.16,2.06,2.06,0,0,0,.46-.44Z" transform="translate(-1 -10.44)"/><path class="cls-1" d="M154.27,56.33a2.35,2.35,0,0,1,0,.28c0,.07,0,.13,0,.18s0,.08-.07.09l-.09,0h-2.95a.27.27,0,0,1-.21-.1.58.58,0,0,1-.07-.33V56l0-.15.06-.16.1-.17,1.69-2.9h-1.6c-.06,0-.11,0-.15-.14a1.12,1.12,0,0,1-.06-.43c0-.11,0-.2,0-.27s0-.13,0-.18a.22.22,0,0,1,.07-.09.14.14,0,0,1,.09,0h2.76l.12,0a.15.15,0,0,1,.09.06.32.32,0,0,1,0,.13.92.92,0,0,1,0,.19v.28c0,.07,0,.14,0,.2l0,.16-.06.16-.09.17-1.68,2.89h1.78l.09,0a.2.2,0,0,1,.06.09.58.58,0,0,1,0,.17A2.27,2.27,0,0,1,154.27,56.33Z" transform="translate(-1 -10.44)"/><path class="cls-1" d="M156.8,50a.89.89,0,0,1-.15.59.82.82,0,0,1-.59.16.79.79,0,0,1-.58-.16.8.8,0,0,1-.15-.56.9.9,0,0,1,.16-.6.79.79,0,0,1,.58-.16.77.77,0,0,1,.58.16A.81.81,0,0,1,156.8,50Zm-.09,6.71a.14.14,0,0,1,0,.09.24.24,0,0,1-.11.08l-.19,0h-.62l-.19,0a.24.24,0,0,1-.11-.08.14.14,0,0,1,0-.09v-5a.17.17,0,0,1,0-.1.35.35,0,0,1,.11-.08.69.69,0,0,1,.19,0l.31,0,.31,0,.19,0a.35.35,0,0,1,.11.08.17.17,0,0,1,0,.1Z" transform="translate(-1 -10.44)"/></g><g class="cls-2"><path class="cls-1" d="M161.1,52.17a3,3,0,0,1,0,.33.58.58,0,0,1,0,.21.23.23,0,0,1-.05.1l-.08,0a.2.2,0,0,1-.1,0l-.11,0-.14,0-.17,0a.54.54,0,0,0-.21,0,.86.86,0,0,0-.22.15,1.73,1.73,0,0,0-.24.27,4.27,4.27,0,0,0-.26.41v3.13a.14.14,0,0,1,0,.09.24.24,0,0,1-.11.08l-.19,0h-.62l-.19,0a.24.24,0,0,1-.11-.08.14.14,0,0,1,0-.09v-5a.14.14,0,0,1,0-.09s.05,0,.09-.07a.58.58,0,0,1,.17,0H159a.5.5,0,0,1,.16,0,.22.22,0,0,1,.09.07.24.24,0,0,1,0,.09v.63c.12-.19.23-.34.33-.47a2.44,2.44,0,0,1,.3-.28.67.67,0,0,1,.29-.15.92.92,0,0,1,.28,0h.14l.16,0,.14,0a.19.19,0,0,1,.09.05l0,.06a.2.2,0,0,1,0,.09s0,.1,0,.18Z" transform="translate(-1 -10.44)"/></g><g class="cls-2"><path class="cls-1" d="M163.25,56.72a.14.14,0,0,1,0,.09.24.24,0,0,1-.11.08l-.19,0h-.62l-.19,0a.24.24,0,0,1-.11-.08.14.14,0,0,1,0-.09V49.33a.17.17,0,0,1,0-.1.24.24,0,0,1,.11-.08.64.64,0,0,1,.19,0h.62a.74.74,0,0,1,.19,0,.24.24,0,0,1,.11.08.17.17,0,0,1,0,.1Z" transform="translate(-1 -10.44)"/></g><g class="cls-2"><path class="cls-1" d="M166.09,50a.89.89,0,0,1-.15.59.82.82,0,0,1-.59.16.79.79,0,0,1-.58-.16.86.86,0,0,1-.14-.56.9.9,0,0,1,.15-.6.79.79,0,0,1,.58-.16.77.77,0,0,1,.58.16A.81.81,0,0,1,166.09,50ZM166,56.72a.14.14,0,0,1,0,.09.24.24,0,0,1-.11.08l-.19,0h-.62l-.19,0a.24.24,0,0,1-.11-.08.14.14,0,0,1,0-.09v-5a.17.17,0,0,1,0-.1.35.35,0,0,1,.11-.08.69.69,0,0,1,.19,0l.31,0,.31,0,.19,0a.35.35,0,0,1,.11.08.17.17,0,0,1,0,.1Z" transform="translate(-1 -10.44)"/></g><g class="cls-2"><path class="cls-1" d="M170,56.91l-.55,1.77a.34.34,0,0,1-.24.21,2.3,2.3,0,0,1-.6.06l-.32,0a.52.52,0,0,1-.18-.07.16.16,0,0,1-.07-.11.55.55,0,0,1,0-.16l.6-1.68a.29.29,0,0,1-.11-.11.28.28,0,0,1-.08-.15L167,52.05a1.11,1.11,0,0,1-.06-.3.24.24,0,0,1,.06-.17.42.42,0,0,1,.2-.08l.39,0h.34a.54.54,0,0,1,.2,0,.24.24,0,0,1,.1.1.77.77,0,0,1,.07.2l1.07,3.36h0l1-3.42a.43.43,0,0,1,.08-.2.4.4,0,0,1,.16-.07l.39,0,.36,0a.5.5,0,0,1,.22.09.21.21,0,0,1,.06.16.85.85,0,0,1,0,.25Z" transform="translate(-1 -10.44)"/></g><g class="cls-2"><path class="cls-1" d="M173.9,50a.83.83,0,0,1-.16.59.79.79,0,0,1-.58.16.77.77,0,0,1-.58-.16.8.8,0,0,1-.15-.56.85.85,0,0,1,.16-.6.77.77,0,0,1,.58-.16.79.79,0,0,1,.58.16A.81.81,0,0,1,173.9,50Zm-.1,6.71a.14.14,0,0,1,0,.09.21.21,0,0,1-.1.08l-.19,0h-.62l-.2,0a.21.21,0,0,1-.1-.08.14.14,0,0,1,0-.09v-5a.17.17,0,0,1,0-.1.29.29,0,0,1,.1-.08l.2,0,.31,0,.31,0,.19,0a.29.29,0,0,1,.1.08.17.17,0,0,1,0,.1Z" transform="translate(-1 -10.44)"/></g></g><path class="cls-1" d="M12.9,26.25A4.36,4.36,0,0,0,16.65,30c.26-2.95-3.75-3.73-3.75-3.73" transform="translate(-1 -10.44)"/><path class="cls-1" d="M8.59,22a46.22,46.22,0,0,0,1.59,10.93l3-1.32s-.23-3-.31-5.36c11.17,0,16.43,3.12,19.2,4.88-8-8.95-21-9.06-23.5-9.13m3.61,4.3a.74.74,0,1,1,.74-.74h0a.74.74,0,0,1-.74.74m3-.67a.39.39,0,0,1-.39-.39.4.4,0,0,1,.39-.39.39.39,0,0,1,.39.39.38.38,0,0,1-.39.39m2.94.05a.4.4,0,0,1-.39-.39.39.39,0,0,1,.39-.39.38.38,0,0,1,.39.39.39.39,0,0,1-.39.39m2.78.46a.38.38,0,0,1-.39-.39.39.39,0,0,1,.39-.39.4.4,0,0,1,.39.39.39.39,0,0,1-.39.39m3,.78a.39.39,0,0,1-.39-.39.4.4,0,0,1,.39-.39.39.39,0,0,1,.39.39.38.38,0,0,1-.39.39m2.91,1.22a.38.38,0,0,1-.39-.39.39.39,0,0,1,.78,0,.38.38,0,0,1-.39.39" transform="translate(-1 -10.44)"/><path class="cls-1" d="M27.35,20.23a4.41,4.41,0,0,0,0,5.3c2.27-1.91,0-5.3,0-5.3" transform="translate(-1 -10.44)"/><path class="cls-1" d="M27.32,14.19A46.42,46.42,0,0,0,20.69,23l3.06,1.21s2-2.29,3.58-4c7.89,7.91,9.4,13.84,10.1,17.05C38.11,25.26,29,16,27.32,14.19m-.48,5.57a.75.75,0,0,1,0-1,.74.74,0,1,1,0,1m2.58,1.66a.39.39,0,0,1,0-.55.4.4,0,0,1,.56,0,.39.39,0,0,1,0,.55h0a.38.38,0,0,1-.54,0m2,2.13a.38.38,0,0,1,0-.55A.39.39,0,0,1,32,23a.38.38,0,0,1,0,.55h0a.37.37,0,0,1-.53,0m1.63,2.29a.39.39,0,0,1,0-.53.38.38,0,0,1,.53-.13.39.39,0,0,1,.13.54.37.37,0,0,1-.13.12.37.37,0,0,1-.53,0m1.56,2.65a.38.38,0,0,1,.12-.53.35.35,0,1,1-.12.54m1.17,2.92a.39.39,0,1,1,.55,0h0a.4.4,0,0,1-.54,0" transform="translate(-1 -10.44)"/><path class="cls-1" d="M41.71,26.42A4.38,4.38,0,0,0,38,30.16c3,.27,3.75-3.74,3.75-3.74" transform="translate(-1 -10.44)"/><path class="cls-1" d="M46,22.14a45.73,45.73,0,0,0-10.93,1.54l1.31,3s3-.22,5.36-.28c-.06,11.16-3.2,16.42-5,19.18,9-8,9.16-21,9.23-23.46m-4.29,3.59a.74.74,0,1,1,.74.74h0a.73.73,0,0,1-.73-.73h0m.64,3a.39.39,0,0,1,.39-.39.4.4,0,0,1,.39.39.39.39,0,0,1-.39.39.38.38,0,0,1-.39-.39m-.06,2.94a.39.39,0,0,1,.39-.39.4.4,0,0,1,.39.39.39.39,0,0,1-.39.39.38.38,0,0,1-.39-.39m-.48,2.77a.39.39,0,0,1,.78,0,.39.39,0,0,1-.78,0m-.78,3A.38.38,0,0,1,41.4,37a.39.39,0,0,1,0,.78.38.38,0,0,1-.39-.39m-1.23,2.91a.39.39,0,0,1,.39-.39.4.4,0,0,1,.39.39.39.39,0,0,1-.39.39.38.38,0,0,1-.39-.39" transform="translate(-1 -10.44)"/><path class="cls-1" d="M47.87,40.72a4.39,4.39,0,0,0-5.3,0c1.89,2.29,5.3,0,5.3,0" transform="translate(-1 -10.44)"/><path class="cls-1" d="M53.91,40.76a45.74,45.74,0,0,0-8.76-6.71L43.92,37.1s2.27,2,3.95,3.62c-8,7.8-13.94,9.24-17.16,9.91,12,.78,21.39-8.19,23.19-9.87m-5.57-.54a.74.74,0,0,1,1,1,.74.74,0,0,1-1-1h0m-1.68,2.56a.39.39,0,0,1,.55,0,.39.39,0,1,1-.54.57h0a.4.4,0,0,1,0-.54m-2.15,2a.38.38,0,0,1,.54.11.38.38,0,0,1,0,.43.39.39,0,0,1-.54-.11.42.42,0,0,1,0-.43m-2.3,1.61a.39.39,0,1,1,0,.55v0a.39.39,0,0,1,0-.53m-2.67,1.53a.39.39,0,0,1,.54-.12.4.4,0,0,1,.13.54.49.49,0,0,1-.13.12.39.39,0,0,1-.54-.13.4.4,0,0,1,0-.41M36.6,49.09a.4.4,0,0,1,.54.12.42.42,0,0,1,0,.43.39.39,0,0,1-.54-.12.38.38,0,0,1,0-.43" transform="translate(-1 -10.44)"/><path class="cls-1" d="M41.7,55A4.37,4.37,0,0,0,38,51.21C37.7,54.16,41.7,55,41.7,55" transform="translate(-1 -10.44)"/><path class="cls-1" d="M46,59.24a45.55,45.55,0,0,0-1.5-10.92l-3,1.3s.2,3,.25,5.36c-11.16-.09-16.4-3.25-19.16-5,8,9,21,9.23,23.43,9.3M42.4,55a.74.74,0,1,1-.74.73h0A.73.73,0,0,1,42.4,55m-3,.63a.39.39,0,0,1,.39.39.38.38,0,0,1-.39.39A.39.39,0,0,1,39,56a.4.4,0,0,1,.39-.39m-2.94-.07a.4.4,0,0,1,.47.3.38.38,0,0,1-.29.46.28.28,0,0,1-.18,0,.38.38,0,0,1-.29-.46.4.4,0,0,1,.29-.3M33.68,55a.38.38,0,0,1,.39.39.39.39,0,0,1-.39.39.4.4,0,0,1-.39-.39.39.39,0,0,1,.39-.39m-3-.78a.39.39,0,0,1,.39.39.4.4,0,0,1-.39.39.39.39,0,0,1-.39-.39.38.38,0,0,1,.39-.39M27.81,53a.39.39,0,0,1,.39.39.38.38,0,0,1-.39.39.39.39,0,0,1-.39-.39.4.4,0,0,1,.39-.39" transform="translate(-1 -10.44)"/><path class="cls-1" d="M27.37,61a4.4,4.4,0,0,0-.06-5.3c-2.25,1.93.06,5.3.06,5.3" transform="translate(-1 -10.44)"/><path class="cls-1" d="M27.46,67A45.93,45.93,0,0,0,34,58.1l-3.08-1.17S29,59.24,27.37,61c-8-7.83-9.53-13.75-10.26-17-.54,12,8.64,21.23,10.35,23m.42-5.58a.74.74,0,0,1,0,1,.75.75,0,0,1-1.05,0,.74.74,0,0,1,0-1h0a.73.73,0,0,1,1,0m-2.59-1.64a.4.4,0,0,1,0,.54.38.38,0,0,1-.54,0,.39.39,0,0,1,0-.53.38.38,0,0,1,.54,0m-2.05-2.1a.39.39,0,0,1,0,.55.39.39,0,0,1-.56-.54h0a.38.38,0,0,1,.54,0m-1.65-2.28a.4.4,0,0,1,0,.56.39.39,0,0,1-.55,0,.38.38,0,0,1,0-.55v0a.4.4,0,0,1,.54,0M20,52.78a.4.4,0,0,1,0,.54.39.39,0,1,1-.57-.54.39.39,0,0,1,.55,0h0m-1.22-2.91a.39.39,0,1,1-.54.57.39.39,0,0,1,0-.55v0a.4.4,0,0,1,.54,0" transform="translate(-1 -10.44)"/><path class="cls-1" d="M12.94,55.12a4.38,4.38,0,0,0,3.74-3.75c-2.95-.26-3.74,3.75-3.74,3.75" transform="translate(-1 -10.44)"/><path class="cls-1" d="M8.7,59.42a46.36,46.36,0,0,0,10.92-1.56l-1.32-3s-3,.23-5.35.3c0-11.17,3.12-16.43,4.88-19.2C8.86,44,8.76,57,8.7,59.44M13,55.83a.74.74,0,1,1-.73-.74h0a.74.74,0,0,1,.73.74m-.68-3a.39.39,0,0,1-.39.39.4.4,0,0,1-.39-.39.39.39,0,0,1,.39-.39.38.38,0,0,1,.39.39m0-3a.38.38,0,0,1-.39.39.39.39,0,0,1-.39-.39.4.4,0,0,1,.39-.39.39.39,0,0,1,.39.39m.47-2.77a.4.4,0,0,1-.79,0,.4.4,0,0,1,.79,0m.78-3a.39.39,0,0,1-.39.39.38.38,0,0,1-.39-.39.39.39,0,0,1,.39-.39.4.4,0,0,1,.39.39m1.22-2.9a.39.39,0,1,1-.39-.39.38.38,0,0,1,.39.39" transform="translate(-1 -10.44)"/><path class="cls-1" d="M7,40.59a4.39,4.39,0,0,0,5.3.07c-1.88-2.3-5.3-.07-5.3-.07" transform="translate(-1 -10.44)"/><path class="cls-1" d="M1,40.53a45.91,45.91,0,0,0,8.73,6.75L11,44.23s-2.26-2-3.94-3.64c8-7.76,14-9.19,17.19-9.85C12.22,29.91,2.8,38.87,1,40.53m5.56.58a.72.72,0,0,1-1,0,.73.73,0,1,1,1,0h0m1.7-2.55a.39.39,0,1,1,0-.56v0a.38.38,0,0,1,0,.54m2.15-2a.4.4,0,0,1-.54,0,.4.4,0,0,1,0-.56.39.39,0,0,1,.55,0,.38.38,0,0,1,0,.55v0M12.72,35a.39.39,0,0,1-.53-.13.38.38,0,0,1,0-.42.39.39,0,0,1,.53.13.38.38,0,0,1,0,.42m2.68-1.53a.34.34,0,1,1,0-.53.38.38,0,0,1,0,.53m2.94-1.14a.39.39,0,1,1-.65-.43.34.34,0,0,1,.12-.12.39.39,0,0,1,.53.55" transform="translate(-1 -10.44)"/><path class="cls-1" d="M23.55,34.05s3.95,1.31,3.05,5.07c-2-.3-3.22-2.07-3.05-5.07" transform="translate(-1 -10.44)"/><path class="cls-1" d="M19.81,40.51s3.14-2.73,5.9,0c-1.28,1.58-3.41,1.72-5.9,0" transform="translate(-1 -10.44)"/><path class="cls-1" d="M34.94,40.47s-3.14,2.73-5.9.06c1.28-1.58,3.42-1.72,5.9-.06" transform="translate(-1 -10.44)"/><path class="cls-1" d="M23.53,47.16s-.78-4.1,2.93-5.12c.72,1.9-.24,3.81-2.93,5.12" transform="translate(-1 -10.44)"/><path class="cls-1" d="M31.28,47.14s-4-1.36-3-5.07c2,.32,3.2,2.1,3,5.07" transform="translate(-1 -10.44)"/><path class="cls-1" d="M31.17,34s.78,4.09-2.9,5.14c-.74-1.9.22-3.82,2.9-5.14" transform="translate(-1 -10.44)"/><path class="cls-1" d="M24.23,33.28l3.2-1.84,3,1.76L28,34.9s-.44.17-.14-.58.23-1.47-.51-1.56c-.71.11-1.12.39-.61,1.56.06.2.17.84-.19.58l-2.34-1.64" transform="translate(-1 -10.44)"/><path class="cls-1" d="M19.38,39.34l.12-3.69L22.56,34l.2,2.91s-.08.46-.56-.18-1.13-1-1.56-.39-.28,1.15,1,1.34c.2,0,.78.29.39.46L19.4,39.34" transform="translate(-1 -10.44)"/><path class="cls-1" d="M22.56,47l-3.2-1.84V41.7L22,42.9s.37.29-.42.39-1.37.55-1.07,1.23.89.78,1.66-.26c.14-.15.63-.57.59-.13S22.56,47,22.56,47" transform="translate(-1 -10.44)"/><path class="cls-1" d="M30.5,47.88l-3.21,1.81-3-1.78,2.39-1.68s.43-.16.13.58-.24,1.47.49,1.56c.72-.1,1.13-.36.63-1.56-.06-.2-.17-.84.19-.58l2.34,1.66" transform="translate(-1 -10.44)"/><path class="cls-1" d="M35.33,41.68l-.06,3.69-3,1.65L32,44.11s.08-.46.56.18,1.14,1,1.59.36c.28-.67.26-1.17-1-1.32-.2-.06-.8-.29-.39-.46l2.62-1.17" transform="translate(-1 -10.44)"/><path class="cls-1" d="M32.17,34.06l3.21,1.82v3.46l-2.67-1.17s-.39-.29.43-.41,1.38-.55,1.07-1.23-.89-.78-1.66.27c-.14.16-.63.58-.59.13s.21-2.86.21-2.86" transform="translate(-1 -10.44)"/><path class="cls-1" d="M28.31,40.49a.91.91,0,1,1-.91-.9h0a.9.9,0,0,1,.91.9" transform="translate(-1 -10.44)"/></svg>